<?xml version="1.0" encoding="UTF-8" standalone="no"?>
<svg
   xmlns:dc="http://purl.org/dc/elements/1.1/"
   xmlns:cc="http://creativecommons.org/ns#"
   xmlns:rdf="http://www.w3.org/1999/02/22-rdf-syntax-ns#"
   xmlns:svg="http://www.w3.org/2000/svg"
   xmlns="http://www.w3.org/2000/svg"
   xmlns:xlink="http://www.w3.org/1999/xlink"
   width="34.151855mm"
   height="34.151855mm"
   viewBox="0 0 34.151855 34.151856"
   version="1.1"
   id="svg3681">
  <defs
     id="defs3675">
    <linearGradient
       xlink:href="#linearGradient1459"
       id="linearGradient3730"
       x1="-1092.8644"
       y1="66.459702"
       x2="-1055.4196"
       y2="66.459702"
       gradientUnits="userSpaceOnUse"
       gradientTransform="matrix(0.57527406,0,0,0.57527406,699.9481,65.815025)" />
    <linearGradient
       id="linearGradient1459">
      <stop
         style="stop-color:#4a98ff;stop-opacity:1"
         offset="0"
         id="stop1455" />
      <stop
         style="stop-color:#5500ee;stop-opacity:1"
         offset="1"
         id="stop1457" />
    </linearGradient>
    <linearGradient
       xlink:href="#linearGradient1010"
       id="linearGradient3695"
       gradientUnits="userSpaceOnUse"
       gradientTransform="matrix(0.04032047,0,0,0.04032018,64.1071,56.368658)"
       x1="307.85742"
       y1="865.6181"
       x2="580.71484"
       y2="865.6181" />
    <linearGradient
       id="linearGradient1010">
      <stop
         style="stop-color:#0066e0;stop-opacity:1"
         offset="0"
         id="stop1006" />
      <stop
         style="stop-color:#67a2ff;stop-opacity:1"
         offset="1"
         id="stop1008" />
    </linearGradient>
  </defs>
  <metadata
     id="metadata3678">
    <rdf:RDF>
      <cc:Work
         rdf:about="">
        <dc:format>image/svg+xml</dc:format>
        <dc:type
           rdf:resource="http://purl.org/dc/dcmitype/StillImage" />
        <dc:title></dc:title>
      </cc:Work>
    </rdf:RDF>
  </metadata>
  <g
     id="layer1"
     transform="translate(-64.944908,-79.307808)">
    <circle
       style="fill:#333333;fill-opacity:1;fill-rule:nonzero;stroke:none;stroke-width:2.01389;stroke-linecap:square;stroke-linejoin:round;stroke-miterlimit:4;stroke-dasharray:none;stroke-opacity:0.235294;paint-order:normal"
       id="circle4278"
       cx="82.020836"
       cy="96.383736"
       r="17.075928" />
    <circle
       style="fill:#ffffff;fill-opacity:1;fill-rule:nonzero;stroke:none;stroke-width:2.01389;stroke-linecap:square;stroke-linejoin:round;stroke-miterlimit:4;stroke-dasharray:none;stroke-opacity:0.235294;paint-order:normal"
       id="circle3136"
       cx="82.020836"
       cy="96.383728"
       r="16.130987" />
    <circle
       r="5.5008898"
       cy="89.632774"
       cx="82.020836"
       id="circle3138"
       style="fill:#2366c9;fill-opacity:1;fill-rule:nonzero;stroke:none;stroke-width:2.01389;stroke-linecap:square;stroke-linejoin:round;stroke-miterlimit:4;stroke-dasharray:none;stroke-opacity:0.235294;paint-order:normal" />
    <path
       id="path3140"
       d="M 82.0205,95.580016 A 10.778771,13.02776 0 0 0 71.2516,108.37017 16.130988,16.130988 0 0 0 82.0205,112.51511 16.130988,16.130988 0 0 0 92.7926,108.36529 10.778771,13.02776 0 0 0 82.0205,95.580016 Z"
       style="fill:url(#linearGradient3730);fill-opacity:1;fill-rule:nonzero;stroke:none;stroke-width:2.01389;stroke-linecap:square;stroke-linejoin:round;stroke-miterlimit:4;stroke-dasharray:none;stroke-opacity:0.235294;paint-order:normal" />
    <path
       id="path3689"
       style="opacity:0.996;fill:url(#linearGradient3695);fill-opacity:1;stroke:none;stroke-width:0.793752;stroke-linecap:square;stroke-linejoin:round"
       d="m 79.1385,87.407475 c -0.753,-0.0013 -1.5792,0.23973 -2.3656,0.57661 a 5.5008643,5.5008237 0 0 0 -0.2529,1.648717 5.5008643,5.5008237 0 0 0 5.5008,5.50079 5.5008643,5.5008237 0 0 0 5.5009,-5.50079 5.5008643,5.5008237 0 0 0 -0.1898,-1.432468 c -0.4793,0.738192 -1.2724,1.432478 -2.5607,1.432468 -2.7504,-2.3e-5 -2.6209,-1.780232 -5.1461,-2.187527 -0.1579,-0.02546 -0.3204,-0.0375 -0.4866,-0.0378 z" />
  </g>
</svg>
