<?xml version="1.0" encoding="UTF-8" standalone="no"?>
<svg
   xmlns:dc="http://purl.org/dc/elements/1.1/"
   xmlns:cc="http://creativecommons.org/ns#"
   xmlns:rdf="http://www.w3.org/1999/02/22-rdf-syntax-ns#"
   xmlns:svg="http://www.w3.org/2000/svg"
   xmlns="http://www.w3.org/2000/svg"
   xmlns:xlink="http://www.w3.org/1999/xlink"
   xmlns:sodipodi="http://sodipodi.sourceforge.net/DTD/sodipodi-0.dtd"
   xmlns:inkscape="http://www.inkscape.org/namespaces/inkscape"
   width="512"
   height="512"
   viewBox="0 0 135.46666 135.46667"
   version="1.1"
   id="svg8"
   inkscape:version="1.0.1 (3bc2e813f5, 2020-09-07)"
   sodipodi:docname="project-hub_logo.svg">
  <defs
     id="defs2">
    <linearGradient
       inkscape:collect="always"
       id="linearGradient1018">
      <stop
         style="stop-color:#ff6f1b;stop-opacity:1"
         offset="0"
         id="stop1014" />
      <stop
         style="stop-color:#fff24c;stop-opacity:1"
         offset="1"
         id="stop1016" />
    </linearGradient>
    <linearGradient
       inkscape:collect="always"
       id="linearGradient1010">
      <stop
         style="stop-color:#0066e0;stop-opacity:1"
         offset="0"
         id="stop1006" />
      <stop
         style="stop-color:#67a2ff;stop-opacity:1"
         offset="1"
         id="stop1008" />
    </linearGradient>
    <linearGradient
       inkscape:collect="always"
       id="linearGradient1002">
      <stop
         style="stop-color:#ff4a4a;stop-opacity:1"
         offset="0"
         id="stop998" />
      <stop
         style="stop-color:#a820ff;stop-opacity:1"
         offset="1"
         id="stop1000" />
    </linearGradient>
    <linearGradient
       inkscape:collect="always"
       xlink:href="#linearGradient1002"
       id="linearGradient1004"
       x1="343.12152"
       y1="916.53387"
       x2="578.07379"
       y2="851.71338"
       gradientUnits="userSpaceOnUse"
       gradientTransform="matrix(0.49647414,0,0,0.49647048,-71.389298,-159.66967)" />
    <linearGradient
       inkscape:collect="always"
       xlink:href="#linearGradient1010"
       id="linearGradient1012"
       x1="307.85742"
       y1="865.6181"
       x2="580.71484"
       y2="865.6181"
       gradientUnits="userSpaceOnUse"
       gradientTransform="matrix(0.49647414,0,0,0.49647048,-71.389298,-159.6706)" />
    <linearGradient
       inkscape:collect="always"
       xlink:href="#linearGradient1018"
       id="linearGradient1020"
       x1="190.47003"
       y1="-81.453941"
       x2="217.91425"
       y2="-160.98508"
       gradientUnits="userSpaceOnUse"
       gradientTransform="matrix(1.8764239,0,0,1.8764377,-159.6706,71.389298)" />
  </defs>
  <sodipodi:namedview
     id="base"
     pagecolor="#ffffff"
     bordercolor="#666666"
     borderopacity="1.0"
     inkscape:pageopacity="0.0"
     inkscape:pageshadow="2"
     inkscape:zoom="0.7"
     inkscape:cx="5.2587268"
     inkscape:cy="226.57091"
     inkscape:document-units="mm"
     inkscape:current-layer="layer1"
     inkscape:document-rotation="0"
     showgrid="false"
     inkscape:snap-bbox="true"
     inkscape:bbox-paths="true"
     inkscape:bbox-nodes="true"
     inkscape:snap-bbox-edge-midpoints="true"
     inkscape:snap-bbox-midpoints="true"
     inkscape:object-paths="true"
     inkscape:snap-intersection-paths="true"
     inkscape:snap-smooth-nodes="true"
     inkscape:snap-midpoints="true"
     inkscape:snap-global="true"
     units="px"
     fit-margin-top="0"
     fit-margin-left="0"
     fit-margin-right="0"
     fit-margin-bottom="0"
     inkscape:window-width="1920"
     inkscape:window-height="1017"
     inkscape:window-x="-8"
     inkscape:window-y="-8"
     inkscape:window-maximized="1" />
  <metadata
     id="metadata5">
    <rdf:RDF>
      <cc:Work
         rdf:about="">
        <dc:format>image/svg+xml</dc:format>
        <dc:type
           rdf:resource="http://purl.org/dc/dcmitype/StillImage" />
        <dc:title />
      </cc:Work>
    </rdf:RDF>
  </metadata>
  <g
     inkscape:label="Ebene 1"
     inkscape:groupmode="layer"
     id="layer1"
     transform="translate(-81.453933,-182.1842)">
    <g
       id="g855">
      <path
         id="rect907"
         style="opacity:0.996;fill:#343434;fill-opacity:1;stroke:none;stroke-width:2.64583;stroke-linecap:square;stroke-linejoin:round;stroke-miterlimit:4;stroke-dasharray:none;stroke-opacity:0.996078;paint-order:markers fill stroke"
         d="m 149.09564,182.18423 a 67.733257,67.732758 0 0 0 -0.1629,10e-4 H 97.000769 c -8.613022,0 -15.546819,6.93374 -15.546819,15.5467 v 52.18562 a 67.733257,67.732758 0 0 0 0,0.0911 v 52.09546 c 0,8.61292 6.933797,15.54671 15.546819,15.54671 h 52.186021 v -9.9e-4 a 67.733257,67.732758 0 0 0 67.73381,-67.73232 67.733257,67.732758 0 0 0 -9.9e-4,-0.25406 v -51.93158 c 0,-8.61296 -6.9338,-15.5467 -15.54681,-15.5467 h -51.94168 a 67.733257,67.732758 0 0 0 -0.24435,-0.001 67.733257,67.732758 0 0 0 -0.0911,0 z" />
      <ellipse
         style="opacity:0.996;fill:url(#linearGradient1020);fill-opacity:1;stroke:none;stroke-width:0.793751;stroke-linecap:square;stroke-linejoin:round"
         id="path905"
         cx="249.9174"
         cy="-149.18721"
         transform="rotate(90)"
         rx="67.732758"
         ry="67.733253" />
      <path
         id="circle931"
         style="opacity:0.996;fill:url(#linearGradient1012);fill-opacity:1;stroke:none;stroke-width:0.79375;stroke-linecap:square;stroke-linejoin:round"
         d="m 113.69665,222.51664 c -9.2729,-0.0166 -19.445086,2.95185 -29.128099,7.09992 a 67.733257,67.732758 0 0 0 -3.114601,20.30099 67.733257,67.732758 0 0 0 67.73284,67.73234 67.733257,67.732758 0 0 0 67.73381,-67.73234 67.733257,67.732758 0 0 0 -2.33788,-17.63828 c -5.90122,9.08951 -15.66753,17.6384 -31.52902,17.63828 -33.86681,-2.9e-4 -32.27249,-21.92037 -63.36639,-26.93547 -1.94337,-0.31344 -3.94469,-0.46177 -5.99066,-0.46544 z" />
      <path
         id="circle939"
         style="opacity:0.996;fill:url(#linearGradient1004);fill-opacity:1;stroke:none;stroke-width:0.79375;stroke-linecap:square;stroke-linejoin:round"
         d="m 183.15067,257.862 c -33.40498,0 -38.80869,26.74004 -96.314047,18.51777 a 67.733257,67.732758 0 0 0 62.350167,41.27105 67.733257,67.732758 0 0 0 66.53529,-55.04714 C 206.1435,259.92014 194.95613,257.862 183.15067,257.862 Z" />
    </g>
  </g>
</svg>
