<?xml version="1.0" encoding="UTF-8" standalone="no"?>
<svg
   xmlns:dc="http://purl.org/dc/elements/1.1/"
   xmlns:cc="http://creativecommons.org/ns#"
   xmlns:rdf="http://www.w3.org/1999/02/22-rdf-syntax-ns#"
   xmlns:svg="http://www.w3.org/2000/svg"
   xmlns="http://www.w3.org/2000/svg"
   xmlns:xlink="http://www.w3.org/1999/xlink"
   xmlns:sodipodi="http://sodipodi.sourceforge.net/DTD/sodipodi-0.dtd"
   xmlns:inkscape="http://www.inkscape.org/namespaces/inkscape"
   width="3214.9863"
   height="512"
   viewBox="0 0 850.63176 135.46667"
   version="1.1"
   id="svg8"
   inkscape:version="1.0.1 (3bc2e813f5, 2020-09-07)"
   sodipodi:docname="logo-full.svg">
  <defs
     id="defs2">
    <linearGradient
       inkscape:collect="always"
       id="linearGradient1018">
      <stop
         style="stop-color:#ff6f1b;stop-opacity:1"
         offset="0"
         id="stop1014" />
      <stop
         style="stop-color:#fff24c;stop-opacity:1"
         offset="1"
         id="stop1016" />
    </linearGradient>
    <linearGradient
       inkscape:collect="always"
       id="linearGradient1010">
      <stop
         style="stop-color:#0066e0;stop-opacity:1"
         offset="0"
         id="stop1006" />
      <stop
         style="stop-color:#67a2ff;stop-opacity:1"
         offset="1"
         id="stop1008" />
    </linearGradient>
    <linearGradient
       inkscape:collect="always"
       id="linearGradient1002">
      <stop
         style="stop-color:#ff4a4a;stop-opacity:1"
         offset="0"
         id="stop998" />
      <stop
         style="stop-color:#a820ff;stop-opacity:1"
         offset="1"
         id="stop1000" />
    </linearGradient>
    <linearGradient
       inkscape:collect="always"
       xlink:href="#linearGradient1002"
       id="linearGradient1004"
       x1="343.12152"
       y1="916.53387"
       x2="578.07379"
       y2="851.71338"
       gradientUnits="userSpaceOnUse"
       gradientTransform="matrix(0.49647414,0,0,0.49647048,-71.389298,-159.66967)" />
    <linearGradient
       inkscape:collect="always"
       xlink:href="#linearGradient1010"
       id="linearGradient1012"
       x1="307.85742"
       y1="865.6181"
       x2="580.71484"
       y2="865.6181"
       gradientUnits="userSpaceOnUse"
       gradientTransform="matrix(0.49647414,0,0,0.49647048,-71.389298,-159.6706)" />
    <linearGradient
       inkscape:collect="always"
       xlink:href="#linearGradient1018"
       id="linearGradient1020"
       x1="190.47003"
       y1="-81.453941"
       x2="217.91425"
       y2="-160.98508"
       gradientUnits="userSpaceOnUse"
       gradientTransform="matrix(1.8764239,0,0,1.8764377,-159.6706,71.389298)" />
  </defs>
  <sodipodi:namedview
     id="base"
     pagecolor="#ffffff"
     bordercolor="#666666"
     borderopacity="1.0"
     inkscape:pageopacity="0.0"
     inkscape:pageshadow="2"
     inkscape:zoom="0.175"
     inkscape:cx="2505.4499"
     inkscape:cy="550.55096"
     inkscape:document-units="mm"
     inkscape:current-layer="layer1"
     inkscape:document-rotation="0"
     showgrid="false"
     inkscape:snap-bbox="true"
     inkscape:bbox-paths="true"
     inkscape:bbox-nodes="true"
     inkscape:snap-bbox-edge-midpoints="true"
     inkscape:snap-bbox-midpoints="true"
     inkscape:object-paths="true"
     inkscape:snap-intersection-paths="true"
     inkscape:snap-smooth-nodes="true"
     inkscape:snap-midpoints="true"
     inkscape:snap-global="true"
     units="px"
     fit-margin-top="0"
     fit-margin-left="0"
     fit-margin-right="0"
     fit-margin-bottom="0"
     inkscape:window-width="1920"
     inkscape:window-height="1017"
     inkscape:window-x="1912"
     inkscape:window-y="-8"
     inkscape:window-maximized="1" />
  <metadata
     id="metadata5">
    <rdf:RDF>
      <cc:Work
         rdf:about="">
        <dc:format>image/svg+xml</dc:format>
        <dc:type
           rdf:resource="http://purl.org/dc/dcmitype/StillImage" />
        <dc:title></dc:title>
      </cc:Work>
    </rdf:RDF>
  </metadata>
  <g
     inkscape:label="Ebene 1"
     inkscape:groupmode="layer"
     id="layer1"
     transform="translate(-81.453935,-182.18415)">
    <g
       id="g855">
      <path
         id="rect907"
         style="opacity:0.996;fill:#343434;fill-opacity:1;stroke:none;stroke-width:2.64583;stroke-linecap:square;stroke-linejoin:round;stroke-miterlimit:4;stroke-dasharray:none;stroke-opacity:0.996078;paint-order:markers fill stroke"
         d="m 149.09564,182.18423 a 67.733257,67.732758 0 0 0 -0.1629,10e-4 H 97.000769 c -8.613022,0 -15.546819,6.93374 -15.546819,15.5467 v 52.18562 a 67.733257,67.732758 0 0 0 0,0.0911 v 52.09546 c 0,8.61292 6.933797,15.54671 15.546819,15.54671 h 52.186021 v -9.9e-4 a 67.733257,67.732758 0 0 0 67.73381,-67.73232 67.733257,67.732758 0 0 0 -9.9e-4,-0.25406 v -51.93158 c 0,-8.61296 -6.9338,-15.5467 -15.54681,-15.5467 h -51.94168 a 67.733257,67.732758 0 0 0 -0.24435,-0.001 67.733257,67.732758 0 0 0 -0.0911,0 z" />
      <ellipse
         style="opacity:0.996;fill:url(#linearGradient1020);fill-opacity:1;stroke:none;stroke-width:0.793751;stroke-linecap:square;stroke-linejoin:round"
         id="path905"
         cx="249.9174"
         cy="-149.18721"
         transform="rotate(90)"
         rx="67.732758"
         ry="67.733253" />
      <path
         id="circle931"
         style="opacity:0.996;fill:url(#linearGradient1012);fill-opacity:1;stroke:none;stroke-width:0.79375;stroke-linecap:square;stroke-linejoin:round"
         d="m 113.69665,222.51664 c -9.2729,-0.0166 -19.445086,2.95185 -29.128099,7.09992 a 67.733257,67.732758 0 0 0 -3.114601,20.30099 67.733257,67.732758 0 0 0 67.73284,67.73234 67.733257,67.732758 0 0 0 67.73381,-67.73234 67.733257,67.732758 0 0 0 -2.33788,-17.63828 c -5.90122,9.08951 -15.66753,17.6384 -31.52902,17.63828 -33.86681,-2.9e-4 -32.27249,-21.92037 -63.36639,-26.93547 -1.94337,-0.31344 -3.94469,-0.46177 -5.99066,-0.46544 z" />
      <path
         id="circle939"
         style="opacity:0.996;fill:url(#linearGradient1004);fill-opacity:1;stroke:none;stroke-width:0.79375;stroke-linecap:square;stroke-linejoin:round"
         d="m 183.15067,257.862 c -33.40498,0 -38.80869,26.74004 -96.314047,18.51777 a 67.733257,67.732758 0 0 0 62.350167,41.27105 67.733257,67.732758 0 0 0 66.53529,-55.04714 C 206.1435,259.92014 194.95613,257.862 183.15067,257.862 Z" />
    </g>
    <g
       aria-label="Project Hub"
       transform="matrix(5.37119,0,0,5.37119,-708.93794,-137.78058)"
       id="text3481-4"
       style="font-style:normal;font-variant:normal;font-weight:normal;font-stretch:normal;font-size:23.9271px;line-height:1.25;font-family:sans-serif;-inkscape-font-specification:'Montserrat Medium';letter-spacing:-1.49267px;word-spacing:0px;white-space:pre;shape-inside:url(#rect3577-6);fill:#343434;fill-opacity:1;stroke:none;stroke-width:0.0823496">
      <path
         d="m 185.40577,62.095788 q 3.25409,0 5.1204,1.555261 1.86631,1.555262 1.86631,4.282951 0,2.72769 -1.86631,4.282951 -1.86631,1.555261 -5.1204,1.555261 h -4.13939 v 5.072545 h -2.39271 V 62.095788 Z m -0.0718,9.594767 q 2.27307,0 3.46943,-0.957084 1.19635,-0.981011 1.19635,-2.799471 0,-1.818459 -1.19635,-2.775543 -1.19636,-0.981011 -3.46943,-0.981011 h -4.06761 v 7.513109 z"
         style="font-style:normal;font-variant:normal;font-weight:500;font-stretch:normal;font-family:Montserrat;-inkscape-font-specification:'Montserrat Medium';fill:#343434;fill-opacity:1;stroke-width:0.0823496"
         id="path10011" />
      <path
         d="m 196.068,68.292907 q 0.59818,-1.100647 1.77061,-1.674897 1.17242,-0.574251 2.84732,-0.574251 v 2.225221 q -0.19141,-0.02393 -0.52639,-0.02393 -1.86632,0 -2.94304,1.124573 -1.05279,1.100647 -1.05279,3.158377 v 6.316754 h -2.297 V 66.163395 h 2.20129 z"
         style="font-style:normal;font-variant:normal;font-weight:500;font-stretch:normal;font-family:Montserrat;-inkscape-font-specification:'Montserrat Medium';fill:#343434;fill-opacity:1;stroke-width:0.0823496"
         id="path10013" />
      <path
         d="m 207.32845,78.98832 q -1.89024,0 -3.39765,-0.837448 -1.50741,-0.837449 -2.36878,-2.297002 -0.83745,-1.48348 -0.83745,-3.349794 0,-1.866314 0.83745,-3.325867 0.86137,-1.48348 2.36878,-2.297001 1.50741,-0.837449 3.39765,-0.837449 1.89024,0 3.37372,0.837449 1.50741,0.813521 2.34485,2.297001 0.86138,1.459553 0.86138,3.325867 0,1.866314 -0.86138,3.349794 -0.83744,1.459553 -2.34485,2.297002 -1.48348,0.837448 -3.37372,0.837448 z m 0,-2.009876 q 1.22028,0 2.17736,-0.550324 0.98101,-0.57425 1.53134,-1.579188 0.55032,-1.028865 0.55032,-2.344856 0,-1.31599 -0.55032,-2.320928 -0.55033,-1.028866 -1.53134,-1.579189 -0.95708,-0.550323 -2.17736,-0.550323 -1.22029,0 -2.2013,0.550323 -0.95708,0.550323 -1.53133,1.579189 -0.55032,1.004938 -0.55032,2.320928 0,1.315991 0.55032,2.344856 0.57425,1.004938 1.53133,1.579188 0.98101,0.550324 2.2013,0.550324 z"
         style="font-style:normal;font-variant:normal;font-weight:500;font-stretch:normal;font-family:Montserrat;-inkscape-font-specification:'Montserrat Medium';fill:#343434;fill-opacity:1;stroke-width:0.0823496"
         id="path10015" />
      <path
         d="m 213.97095,83.630177 q -0.83745,0 -1.55526,-0.191416 -0.71781,-0.191417 -1.19636,-0.574251 l 0.74174,-1.770605 q 0.71782,0.598177 1.86632,0.598177 0.90923,0 1.38777,-0.57425 0.50247,-0.550323 0.50247,-1.65097 V 66.163395 h 2.297 v 13.255613 q 0,1.962022 -1.05279,3.086596 -1.05279,1.124573 -2.99089,1.124573 z m 2.89518,-19.907346 q -0.66996,0 -1.12457,-0.430688 -0.43069,-0.430688 -0.43069,-1.052792 0,-0.622105 0.43069,-1.052793 0.45461,-0.454615 1.12457,-0.454615 0.66996,0 1.10065,0.430688 0.45461,0.406761 0.45461,1.028865 0,0.646032 -0.45461,1.100647 -0.43069,0.430688 -1.10065,0.430688 z"
         style="font-style:normal;font-variant:normal;font-weight:500;font-stretch:normal;font-family:Montserrat;-inkscape-font-specification:'Montserrat Medium';fill:#343434;fill-opacity:1;stroke-width:0.0823496"
         id="path10017" />
      <path
         d="m 232.36166,72.575857 q 0,0.263199 -0.0479,0.693886 h -10.28865 q 0.21534,1.674897 1.45955,2.703763 1.26814,1.004938 3.13445,1.004938 2.27307,0 3.66085,-1.531335 l 1.26813,1.483481 q -0.86137,1.004938 -2.15344,1.531334 -1.26813,0.526396 -2.84732,0.526396 -2.00988,0 -3.56514,-0.813521 -1.55526,-0.837449 -2.41664,-2.320929 -0.83744,-1.48348 -0.83744,-3.349794 0,-1.842386 0.81352,-3.325867 0.83745,-1.48348 2.27307,-2.297001 1.45955,-0.837449 3.27801,-0.837449 1.81846,0 3.23016,0.837449 1.43563,0.813521 2.22522,2.297001 0.81352,1.483481 0.81352,3.397648 z m -6.2689,-4.594003 q -1.65097,0 -2.77554,1.004939 -1.10065,1.004938 -1.29206,2.63198 h 8.13521 q -0.19142,-1.603115 -1.31599,-2.608053 -1.10065,-1.028866 -2.75162,-1.028866 z"
         style="font-style:normal;font-variant:normal;font-weight:500;font-stretch:normal;font-family:Montserrat;-inkscape-font-specification:'Montserrat Medium';fill:#343434;fill-opacity:1;stroke-width:0.0823496"
         id="path10019" />
      <path
         d="m 239.57845,78.98832 q -1.9381,0 -3.46943,-0.837448 -1.50741,-0.837449 -2.36879,-2.297002 -0.86137,-1.48348 -0.86137,-3.349794 0,-1.866314 0.86137,-3.325867 0.86138,-1.48348 2.36879,-2.297001 1.53133,-0.837449 3.46943,-0.837449 1.72275,0 3.06267,0.693886 1.36384,0.693886 2.10558,2.009877 l -1.74668,1.124573 q -0.59818,-0.90923 -1.48348,-1.363844 -0.8853,-0.454615 -1.96202,-0.454615 -1.24421,0 -2.24915,0.550323 -0.98101,0.550323 -1.55526,1.579189 -0.55032,1.004938 -0.55032,2.320928 0,1.339918 0.55032,2.368783 0.57425,1.004938 1.55526,1.555261 1.00494,0.550324 2.24915,0.550324 1.07672,0 1.96202,-0.454615 0.8853,-0.454615 1.48348,-1.363845 l 1.74668,1.100647 q -0.74174,1.31599 -2.10558,2.033803 -1.33992,0.693886 -3.06267,0.693886 z"
         style="font-style:normal;font-variant:normal;font-weight:500;font-stretch:normal;font-family:Montserrat;-inkscape-font-specification:'Montserrat Medium';fill:#343434;fill-opacity:1;stroke-width:0.0823496"
         id="path10021" />
      <path
         d="m 253.51873,78.103017 q -0.50247,0.430688 -1.24421,0.669959 -0.74174,0.215344 -1.53133,0.215344 -1.91417,0 -2.96696,-1.028865 -1.05279,-1.028865 -1.05279,-2.943033 V 68.053636 H 244.57 v -1.890241 h 2.15344 v -2.775544 h 2.297 v 2.775544 h 3.63692 v 1.890241 h -3.63692 v 6.867077 q 0,1.028865 0.50247,1.579189 0.52639,0.550323 1.48348,0.550323 1.05279,0 1.79453,-0.598177 z"
         style="font-style:normal;font-variant:normal;font-weight:500;font-stretch:normal;font-family:Montserrat;-inkscape-font-specification:'Montserrat Medium';fill:#343434;fill-opacity:1;stroke-width:0.0823496"
         id="path10023" />
      <path
         d="m 274.48439,62.095788 v 16.748969 h -2.39271 v -7.465254 h -9.61869 v 7.465254 h -2.39271 V 62.095788 h 2.39271 v 7.202057 h 9.61869 v -7.202057 z"
         style="font-style:normal;font-variant:normal;font-weight:500;font-stretch:normal;font-family:Montserrat;-inkscape-font-specification:'Montserrat Medium';fill:#343434;fill-opacity:1;stroke-width:0.0823496"
         id="path10025" />
      <path
         d="m 289.50138,66.163395 v 12.681362 h -2.17736 V 76.93059 q -0.69389,0.981011 -1.84239,1.531334 -1.12457,0.526396 -2.46449,0.526396 -2.53628,0 -3.99583,-1.387772 -1.45955,-1.411699 -1.45955,-4.139388 v -7.297765 h 2.297 v 7.034567 q 0,1.842387 0.8853,2.799471 0.88531,0.933157 2.53628,0.933157 1.81846,0 2.87125,-1.100647 1.05279,-1.100647 1.05279,-3.110523 v -6.556025 z"
         style="font-style:normal;font-variant:normal;font-weight:500;font-stretch:normal;font-family:Montserrat;-inkscape-font-specification:'Montserrat Medium';fill:#343434;fill-opacity:1;stroke-width:0.0823496"
         id="path10027" />
      <path
         d="m 299.11083,66.043759 q 1.84239,0 3.30194,0.813522 1.45956,0.813521 2.27308,2.273074 0.83745,1.459553 0.83745,3.373721 0,1.914168 -0.83745,3.397648 -0.81352,1.459553 -2.27308,2.273075 -1.45955,0.813521 -3.30194,0.813521 -1.41169,0 -2.58412,-0.550323 -1.17243,-0.550324 -1.9381,-1.603116 v 2.009876 h -2.20129 V 61.09085 h 2.297 v 6.986713 q 0.76567,-1.004938 1.91417,-1.507407 1.1485,-0.526397 2.51234,-0.526397 z m -0.19141,10.934685 q 1.22028,0 2.17736,-0.550324 0.98101,-0.57425 1.53134,-1.579188 0.57425,-1.028865 0.57425,-2.344856 0,-1.31599 -0.57425,-2.320928 -0.55033,-1.028866 -1.53134,-1.579189 -0.95708,-0.550323 -2.17736,-0.550323 -1.19636,0 -2.17737,0.550323 -0.98101,0.550323 -1.53133,1.579189 -0.55033,1.004938 -0.55033,2.320928 0,1.315991 0.55033,2.344856 0.55032,1.004938 1.53133,1.579188 0.98101,0.550324 2.17737,0.550324 z"
         style="font-style:normal;font-variant:normal;font-weight:500;font-stretch:normal;font-family:Montserrat;-inkscape-font-specification:'Montserrat Medium';fill:#343434;fill-opacity:1;stroke-width:0.0823496"
         id="path10029" />
    </g>
  </g>
</svg>
