<?xml version="1.0" encoding="UTF-8" standalone="no"?>
<svg
   xmlns:dc="http://purl.org/dc/elements/1.1/"
   xmlns:cc="http://creativecommons.org/ns#"
   xmlns:rdf="http://www.w3.org/1999/02/22-rdf-syntax-ns#"
   xmlns:svg="http://www.w3.org/2000/svg"
   xmlns="http://www.w3.org/2000/svg"
   xmlns:xlink="http://www.w3.org/1999/xlink"
   width="370.41666mm"
   height="126.60739mm"
   viewBox="0 0 370.41666 126.60739"
   version="1.1"
   id="svg2493">
  <defs
     id="defs2487">
    <linearGradient
       xlink:href="#linearGradient1459"
       id="linearGradient11757"
       x1="-688.97266"
       y1="727.89343"
       x2="-367.17407"
       y2="727.89343"
       gradientUnits="userSpaceOnUse"
       gradientTransform="matrix(4.3505424,0,0,3.2293891,2997.4055,-2132.7702)" />
    <linearGradient
       id="linearGradient1459">
      <stop
         style="stop-color:#4a98ff;stop-opacity:1"
         offset="0"
         id="stop1455" />
      <stop
         style="stop-color:#5500ee;stop-opacity:1"
         offset="1"
         id="stop1457" />
    </linearGradient>
    <linearGradient
       xlink:href="#linearGradient1442-5-0"
       id="linearGradient11769"
       gradientUnits="userSpaceOnUse"
       gradientTransform="matrix(-1.151081,0,0,1.151081,-572.20709,-714.26752)"
       x1="-688.97266"
       y1="727.89343"
       x2="-367.17407"
       y2="727.89343" />
    <linearGradient
       id="linearGradient1442-5-0">
      <stop
         style="stop-color:#ff6060;stop-opacity:1"
         offset="0"
         id="stop1438" />
      <stop
         style="stop-color:#8713ff;stop-opacity:1"
         offset="1"
         id="stop1440" />
    </linearGradient>
    <linearGradient
       xlink:href="#linearGradient1482-5"
       id="linearGradient11764"
       gradientUnits="userSpaceOnUse"
       x1="-688.97266"
       y1="727.89343"
       x2="-367.17407"
       y2="727.89343"
       gradientTransform="matrix(4.3505424,0,0,4.3505424,2997.4054,-2981.7387)" />
    <linearGradient
       id="linearGradient1482-5">
      <stop
         style="stop-color:#ff5e5e;stop-opacity:1"
         offset="0"
         id="stop1478-8" />
      <stop
         style="stop-color:#ffe313;stop-opacity:1"
         offset="1"
         id="stop1480-6" />
    </linearGradient>
    <rect
       x="176.3614"
       y="56.852646"
       width="572.83038"
       height="165.5649"
       id="rect11775" />
    <rect
       x="176.3614"
       y="56.852646"
       width="572.83038"
       height="165.5649"
       id="rect2468" />
    <rect
       x="176.3614"
       y="56.852646"
       width="572.83038"
       height="165.5649"
       id="rect11781" />
    <rect
       x="176.3614"
       y="56.852646"
       width="572.83038"
       height="165.5649"
       id="rect2471" />
  </defs>
  <metadata
     id="metadata2490">
    <rdf:RDF>
      <cc:Work
         rdf:about="">
        <dc:format>image/svg+xml</dc:format>
        <dc:type
           rdf:resource="http://purl.org/dc/dcmitype/StillImage" />
        <dc:title></dc:title>
      </cc:Work>
    </rdf:RDF>
  </metadata>
  <g
     id="layer1"
     transform="translate(149.56019,-74.650841)">
    <path
       id="rect11749"
       style="opacity:0.996;fill:url(#linearGradient11757);fill-opacity:1;stroke:none;stroke-width:5.00028;stroke-linecap:square;stroke-linejoin:round;stroke-miterlimit:4;stroke-dasharray:none;stroke-opacity:1;paint-order:stroke fill markers"
       d="M 28.773438 0 C 12.833545 0 0 12.831595 0 28.771484 L 0 416.23242 C 0 427.05211 11.734534 435.76172 26.310547 435.76172 L 1373.6895 435.76172 C 1388.2654 435.76172 1400 427.05211 1400 416.23242 L 1400 28.771484 C 1400 12.831595 1387.1684 0 1371.2285 0 L 28.773438 0 z "
       transform="matrix(0.26458333,0,0,0.26458333,-149.56019,74.650841)" />
    <path
       id="path11767"
       style="opacity:0.996;fill:url(#linearGradient11769);fill-opacity:1;stroke:none;stroke-width:1.32299;stroke-linecap:square;stroke-linejoin:round;stroke-miterlimit:4;stroke-dasharray:none;stroke-opacity:1;paint-order:stroke fill markers"
       d="m 111.58958,139.66362 c -57.186641,0.42902 -67.618154,26.00201 -162.374011,38.38486 -45.249015,5.91325 -77.061519,0.86693 -98.775759,-7.01016 v 22.38969 h 370.41666 v -35.29886 c -14.83022,-6.39559 -39.7902,-12.70303 -81.51356,-16.99807 -10.46006,-1.07676 -19.5838,-1.5287 -27.75333,-1.46746 z" />
    <path
       id="rect11759"
       style="opacity:0.996;fill:url(#linearGradient11764);fill-opacity:1;stroke:none;stroke-width:5.00028;stroke-linecap:square;stroke-linejoin:round;stroke-miterlimit:4;stroke-dasharray:none;stroke-opacity:1;paint-order:stroke fill markers"
       d="M 412.97656 245.7168 C 382.09961 245.48549 347.61615 247.19399 308.08203 251.26367 C 150.38753 267.49689 56.051301 291.3355 0 315.50781 L 0 449.74414 C 0 465.68403 12.833545 478.51562 28.773438 478.51562 L 1371.2285 478.51562 C 1387.1684 478.51562 1400 465.68403 1400 449.74414 L 1400 364.29883 C 1317.9305 394.07051 1197.6937 413.14226 1026.6738 390.79297 C 668.54144 343.99165 629.11502 247.33833 412.97656 245.7168 z "
       transform="matrix(0.26458333,0,0,0.26458333,-149.56019,74.650841)" />
    <g
       aria-label="Get Started!
"
       transform="matrix(0.48582861,0,0,0.48582861,-220.41692,58.947763)"
       id="text11773"
       style="font-style:normal;font-variant:normal;font-weight:normal;font-stretch:normal;font-size:23.9271px;line-height:1.25;font-family:sans-serif;-inkscape-font-specification:'Montserrat Medium';letter-spacing:0px;word-spacing:0px;white-space:pre;shape-inside:url(#rect11775);fill:#000000;fill-opacity:1;stroke:none;stroke-width:0.910435">
      <path
         d="m 190.47832,70.374564 h 2.297 v 6.532098 q -1.24421,1.028866 -2.89518,1.579189 -1.65097,0.550323 -3.4455,0.550323 -2.53628,0 -4.57008,-1.100646 -2.0338,-1.124574 -3.20623,-3.062669 -1.1485,-1.962022 -1.1485,-4.402586 0,-2.440564 1.1485,-4.402587 1.17243,-1.962022 3.20623,-3.062668 2.05773,-1.100647 4.61793,-1.100647 2.00988,0 3.63692,0.669959 1.65097,0.646032 2.79947,1.914168 l -1.48348,1.48348 q -2.00988,-1.938095 -4.8572,-1.938095 -1.91417,0 -3.4455,0.837449 -1.50741,0.813521 -2.36879,2.297001 -0.86137,1.459553 -0.86137,3.30194 0,1.818459 0.86137,3.301939 0.86138,1.459553 2.36879,2.297002 1.53133,0.837448 3.42157,0.837448 2.24915,0 3.92405,-1.076719 z"
         style="font-style:normal;font-variant:normal;font-weight:500;font-stretch:normal;font-family:Montserrat;-inkscape-font-specification:'Montserrat Medium';fill:#ffffff;fill-opacity:1;stroke-width:0.910435"
         id="path882" />
      <path
         d="m 208.47148,72.575857 q 0,0.263199 -0.0479,0.693886 h -10.28865 q 0.21535,1.674897 1.45956,2.703763 1.26813,1.004938 3.13445,1.004938 2.27307,0 3.66084,-1.531335 l 1.26814,1.483481 q -0.86138,1.004938 -2.15344,1.531334 -1.26814,0.526396 -2.84733,0.526396 -2.00987,0 -3.56513,-0.813521 -1.55527,-0.837449 -2.41664,-2.320929 -0.83745,-1.48348 -0.83745,-3.349794 0,-1.842386 0.81352,-3.325867 0.83745,-1.48348 2.27308,-2.297001 1.45955,-0.837449 3.27801,-0.837449 1.81846,0 3.23016,0.837449 1.43562,0.813521 2.22522,2.297001 0.81352,1.483481 0.81352,3.397648 z m -6.2689,-4.594003 q -1.65097,0 -2.77554,1.004939 -1.10065,1.004938 -1.29207,2.63198 h 8.13522 q -0.19142,-1.603115 -1.31599,-2.608053 -1.10065,-1.028866 -2.75162,-1.028866 z"
         style="font-style:normal;font-variant:normal;font-weight:500;font-stretch:normal;font-family:Montserrat;-inkscape-font-specification:'Montserrat Medium';fill:#ffffff;fill-opacity:1;stroke-width:0.910435"
         id="path884" />
      <path
         d="m 218.78405,78.103017 q -0.50247,0.430688 -1.24421,0.669959 -0.74174,0.215344 -1.53134,0.215344 -1.91416,0 -2.96696,-1.028865 -1.05279,-1.028865 -1.05279,-2.943033 v -6.962786 h -2.15344 v -1.890241 h 2.15344 v -2.775544 h 2.297 v 2.775544 h 3.63692 v 1.890241 h -3.63692 v 6.867077 q 0,1.028865 0.50247,1.579189 0.5264,0.550323 1.48348,0.550323 1.05279,0 1.79453,-0.598177 z"
         style="font-style:normal;font-variant:normal;font-weight:500;font-stretch:normal;font-family:Montserrat;-inkscape-font-specification:'Montserrat Medium';fill:#ffffff;fill-opacity:1;stroke-width:0.910435"
         id="path886" />
      <path
         d="m 233.21205,79.036174 q -1.89024,0 -3.66084,-0.57425 -1.74668,-0.598178 -2.75162,-1.531334 l 0.8853,-1.866314 q 0.95709,0.861375 2.44057,1.411699 1.50741,0.526396 3.08659,0.526396 2.08166,0 3.11053,-0.693886 1.02886,-0.717813 1.02886,-1.890241 0,-0.861375 -0.57425,-1.387772 -0.55032,-0.550323 -1.38777,-0.837448 -0.81352,-0.287125 -2.32093,-0.646032 -1.89024,-0.454615 -3.06267,-0.90923 -1.1485,-0.454614 -1.98595,-1.387771 -0.81352,-0.957084 -0.81352,-2.5602 0,-1.339918 0.69389,-2.416637 0.71781,-1.076719 2.15344,-1.722751 1.43562,-0.646032 3.56513,-0.646032 1.48349,0 2.91911,0.382834 1.43563,0.382833 2.46449,1.100646 l -0.78959,1.914168 q -1.05279,-0.669958 -2.24915,-1.004938 -1.19635,-0.358906 -2.34486,-0.358906 -2.0338,0 -3.06266,0.74174 -1.00494,0.74174 -1.00494,1.914168 0,0.861375 0.57425,1.411699 0.57425,0.526396 1.4117,0.837448 0.86137,0.287125 2.32093,0.622105 1.89024,0.454614 3.03874,0.909229 1.1485,0.454615 1.96202,1.387772 0.83745,0.933157 0.83745,2.512346 0,1.31599 -0.71781,2.416637 -0.71782,1.076719 -2.17737,1.722751 -1.45955,0.622104 -3.58907,0.622104 z"
         style="font-style:normal;font-variant:normal;font-weight:500;font-stretch:normal;font-family:Montserrat;-inkscape-font-specification:'Montserrat Medium';fill:#ffffff;fill-opacity:1;stroke-width:0.910435"
         id="path888" />
      <path
         d="m 249.98492,78.103017 q -0.50247,0.430688 -1.24421,0.669959 -0.74174,0.215344 -1.53134,0.215344 -1.91416,0 -2.96696,-1.028865 -1.05279,-1.028865 -1.05279,-2.943033 v -6.962786 h -2.15344 v -1.890241 h 2.15344 v -2.775544 h 2.297 v 2.775544 h 3.63692 v 1.890241 h -3.63692 v 6.867077 q 0,1.028865 0.50247,1.579189 0.5264,0.550323 1.48348,0.550323 1.0528,0 1.79454,-0.598177 z"
         style="font-style:normal;font-variant:normal;font-weight:500;font-stretch:normal;font-family:Montserrat;-inkscape-font-specification:'Montserrat Medium';fill:#ffffff;fill-opacity:1;stroke-width:0.910435"
         id="path890" />
      <path
         d="m 257.37838,66.043759 q 2.63198,0 4.01975,1.292064 1.4117,1.292063 1.4117,3.852263 v 7.656671 h -2.17736 v -1.674896 q -0.57425,0.885302 -1.65097,1.363844 -1.0528,0.454615 -2.51235,0.454615 -2.12951,0 -3.42157,-1.028865 -1.26814,-1.028865 -1.26814,-2.703762 0,-1.674897 1.22028,-2.679836 1.22028,-1.028865 3.87619,-1.028865 h 3.63692 v -0.454615 q 0,-1.48348 -0.86138,-2.273074 -0.86137,-0.789594 -2.53627,-0.789594 -1.12457,0 -2.20129,0.382833 -1.07672,0.358907 -1.81846,0.981011 l -0.95708,-1.722751 q 0.98101,-0.789594 2.34485,-1.196355 1.36385,-0.430688 2.89518,-0.430688 z m -0.5264,11.173956 q 1.31599,0 2.27308,-0.574251 0.95708,-0.598177 1.38777,-1.674897 v -1.770605 h -3.54121 q -2.91911,0 -2.91911,1.962022 0,0.957084 0.74174,1.507407 0.74174,0.550324 2.05773,0.550324 z"
         style="font-style:normal;font-variant:normal;font-weight:500;font-stretch:normal;font-family:Montserrat;-inkscape-font-specification:'Montserrat Medium';fill:#ffffff;fill-opacity:1;stroke-width:0.910435"
         id="path892" />
      <path
         d="m 269.27014,68.292907 q 0.59818,-1.100647 1.7706,-1.674897 1.17243,-0.574251 2.84733,-0.574251 v 2.225221 q -0.19142,-0.02393 -0.5264,-0.02393 -1.86631,0 -2.94303,1.124573 -1.05279,1.100647 -1.05279,3.158377 v 6.316754 h -2.297 V 66.163395 h 2.20129 z"
         style="font-style:normal;font-variant:normal;font-weight:500;font-stretch:normal;font-family:Montserrat;-inkscape-font-specification:'Montserrat Medium';fill:#ffffff;fill-opacity:1;stroke-width:0.910435"
         id="path894" />
      <path
         d="m 284.36812,78.103017 q -0.50247,0.430688 -1.24421,0.669959 -0.74174,0.215344 -1.53133,0.215344 -1.91417,0 -2.96696,-1.028865 -1.0528,-1.028865 -1.0528,-2.943033 v -6.962786 h -2.15344 v -1.890241 h 2.15344 v -2.775544 h 2.29701 v 2.775544 h 3.63691 v 1.890241 h -3.63691 v 6.867077 q 0,1.028865 0.50246,1.579189 0.5264,0.550323 1.48348,0.550323 1.0528,0 1.79454,-0.598177 z"
         style="font-style:normal;font-variant:normal;font-weight:500;font-stretch:normal;font-family:Montserrat;-inkscape-font-specification:'Montserrat Medium';fill:#ffffff;fill-opacity:1;stroke-width:0.910435"
         id="path896" />
      <path
         d="m 298.17401,72.575857 q 0,0.263199 -0.0479,0.693886 H 287.8375 q 0.21534,1.674897 1.45955,2.703763 1.26814,1.004938 3.13445,1.004938 2.27308,0 3.66085,-1.531335 l 1.26814,1.483481 q -0.86138,1.004938 -2.15344,1.531334 -1.26814,0.526396 -2.84733,0.526396 -2.00987,0 -3.56514,-0.813521 -1.55526,-0.837449 -2.41663,-2.320929 -0.83745,-1.48348 -0.83745,-3.349794 0,-1.842386 0.81352,-3.325867 0.83745,-1.48348 2.27307,-2.297001 1.45956,-0.837449 3.27802,-0.837449 1.81846,0 3.23016,0.837449 1.43562,0.813521 2.22522,2.297001 0.81352,1.483481 0.81352,3.397648 z m -6.2689,-4.594003 q -1.65097,0 -2.77555,1.004939 -1.10064,1.004938 -1.29206,2.63198 h 8.13521 q -0.19141,-1.603115 -1.31599,-2.608053 -1.10064,-1.028866 -2.75161,-1.028866 z"
         style="font-style:normal;font-variant:normal;font-weight:500;font-stretch:normal;font-family:Montserrat;-inkscape-font-specification:'Montserrat Medium';fill:#ffffff;fill-opacity:1;stroke-width:0.910435"
         id="path898" />
      <path
         d="m 313.31985,61.09085 v 17.753907 h -2.2013 v -2.009876 q -0.76566,1.052792 -1.93809,1.603116 -1.17243,0.550323 -2.58413,0.550323 -1.84238,0 -3.30194,-0.813521 -1.45955,-0.813522 -2.297,-2.273075 -0.81352,-1.48348 -0.81352,-3.397648 0,-1.914168 0.81352,-3.373721 0.83745,-1.459553 2.297,-2.273074 1.45956,-0.813522 3.30194,-0.813522 1.36385,0 2.51235,0.526397 1.1485,0.502469 1.91417,1.507407 V 61.09085 Z m -6.5321,15.887594 q 1.19635,0 2.17737,-0.550324 0.98101,-0.57425 1.53133,-1.579188 0.55032,-1.028865 0.55032,-2.344856 0,-1.31599 -0.55032,-2.320928 -0.55032,-1.028866 -1.53133,-1.579189 -0.98102,-0.550323 -2.17737,-0.550323 -1.22028,0 -2.20129,0.550323 -0.95709,0.550323 -1.53134,1.579189 -0.55032,1.004938 -0.55032,2.320928 0,1.315991 0.55032,2.344856 0.57425,1.004938 1.53134,1.579188 0.98101,0.550324 2.20129,0.550324 z"
         style="font-style:normal;font-variant:normal;font-weight:500;font-stretch:normal;font-family:Montserrat;-inkscape-font-specification:'Montserrat Medium';fill:#ffffff;fill-opacity:1;stroke-width:0.910435"
         id="path900" />
      <path
         d="m 317.36351,62.095788 h 2.70376 l -0.45462,11.461081 h -1.81846 z m 1.36384,16.892532 q -0.66996,0 -1.12457,-0.430688 -0.45462,-0.454615 -0.45462,-1.100646 0,-0.646032 0.45462,-1.07672 0.45461,-0.454615 1.12457,-0.454615 0.66996,0 1.10065,0.454615 0.43069,0.430688 0.43069,1.07672 0,0.646031 -0.45462,1.100646 -0.43069,0.430688 -1.07672,0.430688 z"
         style="font-style:normal;font-variant:normal;font-weight:500;font-stretch:normal;font-family:Montserrat;-inkscape-font-specification:'Montserrat Medium';fill:#ffffff;fill-opacity:1;stroke-width:0.910435"
         id="path902" />
    </g>
    <g
       id="g12005"
       transform="matrix(0.6448548,0,0,0.6448548,301.83698,-348.87261)"
       style="stroke-width:1.55073">
      <g
         id="g12010"
         transform="translate(0,3.2072343)"
         style="stroke-width:1.55073">
        <g
           aria-label="It's simple! Enter the edit mode by clicking
the      button and start adding Widgets."
           transform="matrix(0.49559867,0,0,0.49559867,-763.53964,673.82872)"
           id="text11779"
           style="font-style:normal;font-variant:normal;font-weight:normal;font-stretch:normal;font-size:23.9271px;line-height:1.25;font-family:sans-serif;-inkscape-font-specification:'Montserrat Medium';letter-spacing:0px;word-spacing:0px;white-space:pre;shape-inside:url(#rect11781);fill:#000000;fill-opacity:1;stroke:none;stroke-width:1.38402">
          <path
             d="m 179.08902,62.095788 h 1.7706 v 16.748969 h -1.7706 z"
             style="font-style:normal;font-variant:normal;font-weight:normal;font-stretch:normal;font-family:Montserrat;-inkscape-font-specification:Montserrat;fill:#ffffff;fill-opacity:1;stroke-width:1.38402"
             id="path905" />
          <path
             d="m 192.58386,78.07909 q -0.47855,0.430688 -1.19636,0.669959 -0.69388,0.215344 -1.45955,0.215344 -1.77061,0 -2.72769,-0.957084 -0.95708,-0.957084 -0.95708,-2.703762 v -7.608818 h -2.24915 v -1.435626 h 2.24915 v -2.751616 h 1.69882 v 2.751616 h 3.82834 v 1.435626 H 187.942 v 7.513109 q 0,1.124574 0.55032,1.722752 0.57425,0.57425 1.62705,0.57425 0.52639,0 1.00493,-0.16749 0.50247,-0.167489 0.86138,-0.478542 z"
             style="font-style:normal;font-variant:normal;font-weight:normal;font-stretch:normal;font-family:Montserrat;-inkscape-font-specification:Montserrat;fill:#ffffff;fill-opacity:1;stroke-width:1.38402"
             id="path907" />
          <path
             d="m 194.9526,62.095788 h 1.50741 l -0.11964,6.316754 h -1.26814 z"
             style="font-style:normal;font-variant:normal;font-weight:normal;font-stretch:normal;font-family:Montserrat;-inkscape-font-specification:Montserrat;fill:#ffffff;fill-opacity:1;stroke-width:1.38402"
             id="path909" />
          <path
             d="m 203.8774,78.964393 q -1.53134,0 -2.94304,-0.430688 -1.38777,-0.454615 -2.17736,-1.124573 l 0.76567,-1.339918 q 0.78959,0.622105 1.98594,1.028865 1.19636,0.382834 2.48842,0.382834 1.72275,0 2.53628,-0.526396 0.83744,-0.550324 0.83744,-1.531335 0,-0.693886 -0.45461,-1.076719 -0.45462,-0.406761 -1.1485,-0.598178 -0.69389,-0.215344 -1.84239,-0.40676 -1.53133,-0.287126 -2.46449,-0.574251 -0.93316,-0.311052 -1.60312,-1.028865 -0.64603,-0.717813 -0.64603,-1.985949 0,-1.579189 1.31599,-2.584127 1.31599,-1.004938 3.66085,-1.004938 1.22028,0 2.44056,0.334979 1.22029,0.311053 2.00988,0.837449 l -0.74174,1.363844 q -1.55526,-1.076719 -3.7087,-1.076719 -1.62704,0 -2.46449,0.57425 -0.81352,0.574251 -0.81352,1.507408 0,0.717813 0.45461,1.1485 0.47854,0.430688 1.17243,0.646032 0.69389,0.191417 1.91417,0.406761 1.5074,0.287125 2.41663,0.57425 0.90923,0.287125 1.55527,0.981011 0.64603,0.693886 0.64603,1.914168 0,1.65097 -1.38777,2.631981 -1.36385,0.957084 -3.80441,0.957084 z"
             style="font-style:normal;font-variant:normal;font-weight:normal;font-stretch:normal;font-family:Montserrat;-inkscape-font-specification:Montserrat;fill:#ffffff;fill-opacity:1;stroke-width:1.38402"
             id="path911" />
          <path
             d="m 221.84659,78.964393 q -1.53133,0 -2.94303,-0.430688 -1.38777,-0.454615 -2.17737,-1.124573 l 0.76567,-1.339918 q 0.78959,0.622105 1.98595,1.028865 1.19635,0.382834 2.48842,0.382834 1.72275,0 2.53627,-0.526396 0.83745,-0.550324 0.83745,-1.531335 0,-0.693886 -0.45462,-1.076719 -0.45461,-0.406761 -1.1485,-0.598178 -0.69388,-0.215344 -1.84238,-0.40676 -1.53134,-0.287126 -2.4645,-0.574251 -0.93315,-0.311052 -1.60311,-1.028865 -0.64603,-0.717813 -0.64603,-1.985949 0,-1.579189 1.31599,-2.584127 1.31599,-1.004938 3.66084,-1.004938 1.22029,0 2.44057,0.334979 1.22028,0.311053 2.00987,0.837449 l -0.74174,1.363844 q -1.55526,-1.076719 -3.7087,-1.076719 -1.62704,0 -2.46449,0.57425 -0.81352,0.574251 -0.81352,1.507408 0,0.717813 0.45462,1.1485 0.47854,0.430688 1.17242,0.646032 0.69389,0.191417 1.91417,0.406761 1.50741,0.287125 2.41664,0.57425 0.90923,0.287125 1.55526,0.981011 0.64603,0.693886 0.64603,1.914168 0,1.65097 -1.38777,2.631981 -1.36384,0.957084 -3.80441,0.957084 z"
             style="font-style:normal;font-variant:normal;font-weight:normal;font-stretch:normal;font-family:Montserrat;-inkscape-font-specification:Montserrat;fill:#ffffff;fill-opacity:1;stroke-width:1.38402"
             id="path913" />
          <path
             d="m 230.17318,66.259103 h 1.69883 v 12.585654 h -1.69883 z m 0.86138,-2.751616 q -0.5264,0 -0.8853,-0.358907 -0.35891,-0.358906 -0.35891,-0.861375 0,-0.478542 0.35891,-0.837449 0.3589,-0.358906 0.8853,-0.358906 0.5264,0 0.8853,0.358906 0.35891,0.33498 0.35891,0.813522 0,0.526396 -0.35891,0.885302 -0.3589,0.358907 -0.8853,0.358907 z"
             style="font-style:normal;font-variant:normal;font-weight:normal;font-stretch:normal;font-family:Montserrat;-inkscape-font-specification:Montserrat;fill:#ffffff;fill-opacity:1;stroke-width:1.38402"
             id="path915" />
          <path
             d="m 252.30573,66.163395 q 2.36878,0 3.7087,1.363845 1.36384,1.363844 1.36384,4.019752 v 7.297765 h -1.69882 v -7.130275 q 0,-1.962022 -0.95708,-2.990888 -0.93316,-1.028865 -2.65591,-1.028865 -1.96202,0 -3.0866,1.220282 -1.12457,1.196355 -1.12457,3.325867 v 6.603879 h -1.69883 v -7.130275 q 0,-1.962022 -0.95708,-2.990888 -0.93316,-1.028865 -2.67984,-1.028865 -1.93809,0 -3.08659,1.220282 -1.12457,1.196355 -1.12457,3.325867 v 6.603879 h -1.69883 V 66.259103 h 1.62704 v 2.297002 q 0.66996,-1.148501 1.86632,-1.770606 1.19635,-0.622104 2.75161,-0.622104 1.57919,0 2.72769,0.669959 1.17243,0.669958 1.74668,1.985949 0.69389,-1.244209 1.98595,-1.938095 1.31599,-0.717813 2.99089,-0.717813 z"
             style="font-style:normal;font-variant:normal;font-weight:normal;font-stretch:normal;font-family:Montserrat;-inkscape-font-specification:Montserrat;fill:#ffffff;fill-opacity:1;stroke-width:1.38402"
             id="path917" />
          <path
             d="m 268.48042,66.163395 q 1.77061,0 3.20623,0.813521 1.43563,0.789595 2.24915,2.249148 0.81352,1.459553 0.81352,3.325866 0,1.890241 -0.81352,3.349794 -0.81352,1.459553 -2.24915,2.273075 -1.4117,0.789594 -3.20623,0.789594 -1.53133,0 -2.77554,-0.622105 -1.22028,-0.646031 -2.00988,-1.866313 v 7.01064 h -1.69882 V 66.259103 h 1.62704 v 2.488419 q 0.76567,-1.24421 2.00988,-1.914168 1.26813,-0.669959 2.84732,-0.669959 z m -0.11963,11.293591 q 1.31599,0 2.39271,-0.598178 1.07672,-0.622104 1.67489,-1.746678 0.62211,-1.124574 0.62211,-2.5602 0,-1.435626 -0.62211,-2.536272 -0.59817,-1.124574 -1.67489,-1.746678 -1.07672,-0.622105 -2.39271,-0.622105 -1.33992,0 -2.41664,0.622105 -1.05279,0.622104 -1.6749,1.746678 -0.59817,1.100646 -0.59817,2.536272 0,1.435626 0.59817,2.5602 0.62211,1.124574 1.6749,1.746678 1.07672,0.598178 2.41664,0.598178 z"
             style="font-style:normal;font-variant:normal;font-weight:normal;font-stretch:normal;font-family:Montserrat;-inkscape-font-specification:Montserrat;fill:#ffffff;fill-opacity:1;stroke-width:1.38402"
             id="path919" />
          <path
             d="m 278.21874,61.09085 h 1.69882 v 17.753907 h -1.69882 z"
             style="font-style:normal;font-variant:normal;font-weight:normal;font-stretch:normal;font-family:Montserrat;-inkscape-font-specification:Montserrat;fill:#ffffff;fill-opacity:1;stroke-width:1.38402"
             id="path921" />
          <path
             d="m 295.61372,73.078327 h -10.52793 q 0.14357,1.962022 1.50741,3.182304 1.36385,1.196355 3.4455,1.196355 1.17243,0 2.15344,-0.406761 0.98101,-0.430688 1.69883,-1.244209 l 0.95708,1.100646 q -0.83745,1.004939 -2.10558,1.531335 -1.24421,0.526396 -2.75162,0.526396 -1.9381,0 -3.4455,-0.813521 -1.48348,-0.837449 -2.32093,-2.297002 -0.83745,-1.459553 -0.83745,-3.30194 0,-1.842386 0.78959,-3.301939 0.81353,-1.459553 2.2013,-2.273075 1.4117,-0.813521 3.15837,-0.813521 1.74668,0 3.13445,0.813521 1.38778,0.813522 2.17737,2.273075 0.78959,1.435626 0.78959,3.301939 z m -6.07749,-5.455379 q -1.81845,0 -3.06266,1.172428 -1.22029,1.148501 -1.38778,3.014814 h 8.92481 q -0.16749,-1.866313 -1.4117,-3.014814 -1.22028,-1.172428 -3.06267,-1.172428 z"
             style="font-style:normal;font-variant:normal;font-weight:normal;font-stretch:normal;font-family:Montserrat;-inkscape-font-specification:Montserrat;fill:#ffffff;fill-opacity:1;stroke-width:1.38402"
             id="path923" />
          <path
             d="m 298.84384,62.095788 h 2.00987 l -0.3589,11.724279 h -1.316 z m 1.00493,16.868605 q -0.52639,0 -0.90923,-0.358907 -0.3589,-0.382833 -0.3589,-0.885302 0,-0.526396 0.3589,-0.861376 0.35891,-0.358906 0.90923,-0.358906 0.5264,0 0.88531,0.358906 0.3589,0.33498 0.3589,0.861376 0,0.502469 -0.3589,0.885302 -0.35891,0.358907 -0.88531,0.358907 z"
             style="font-style:normal;font-variant:normal;font-weight:normal;font-stretch:normal;font-family:Montserrat;-inkscape-font-specification:Montserrat;fill:#ffffff;fill-opacity:1;stroke-width:1.38402"
             id="path925" />
          <path
             d="m 323.79974,77.313423 v 1.531334 H 311.95582 V 62.095788 h 11.48501 v 1.531334 h -9.7144 v 5.957848 h 8.66161 v 1.507407 h -8.66161 v 6.221046 z"
             style="font-style:normal;font-variant:normal;font-weight:normal;font-stretch:normal;font-family:Montserrat;-inkscape-font-specification:Montserrat;fill:#ffffff;fill-opacity:1;stroke-width:1.38402"
             id="path927" />
          <path
             d="m 334.01658,66.163395 q 2.36878,0 3.75656,1.387772 1.4117,1.363844 1.4117,3.995825 v 7.297765 h -1.69883 v -7.130275 q 0,-1.962022 -0.98101,-2.990888 -0.98101,-1.028865 -2.79947,-1.028865 -2.0338,0 -3.23016,1.220282 -1.17243,1.196355 -1.17243,3.325867 v 6.603879 h -1.69882 V 66.259103 h 1.62704 v 2.320929 q 0.69389,-1.148501 1.91417,-1.770605 1.24421,-0.646032 2.87125,-0.646032 z"
             style="font-style:normal;font-variant:normal;font-weight:normal;font-stretch:normal;font-family:Montserrat;-inkscape-font-specification:Montserrat;fill:#ffffff;fill-opacity:1;stroke-width:1.38402"
             id="path929" />
          <path
             d="m 350.43052,78.07909 q -0.47854,0.430688 -1.19636,0.669959 -0.69388,0.215344 -1.45955,0.215344 -1.7706,0 -2.72769,-0.957084 -0.95708,-0.957084 -0.95708,-2.703762 v -7.608818 h -2.24915 v -1.435626 h 2.24915 v -2.751616 h 1.69882 v 2.751616 h 3.82834 v 1.435626 h -3.82834 v 7.513109 q 0,1.124574 0.55032,1.722752 0.57426,0.57425 1.62705,0.57425 0.52639,0 1.00494,-0.16749 0.50246,-0.167489 0.86137,-0.478542 z"
             style="font-style:normal;font-variant:normal;font-weight:normal;font-stretch:normal;font-family:Montserrat;-inkscape-font-specification:Montserrat;fill:#ffffff;fill-opacity:1;stroke-width:1.38402"
             id="path931" />
          <path
             d="m 364.02104,73.078327 h -10.52792 q 0.14356,1.962022 1.50741,3.182304 1.36384,1.196355 3.4455,1.196355 1.17243,0 2.15344,-0.406761 0.98101,-0.430688 1.69882,-1.244209 l 0.95709,1.100646 q -0.83745,1.004939 -2.10559,1.531335 -1.24421,0.526396 -2.75161,0.526396 -1.9381,0 -3.44551,-0.813521 -1.48348,-0.837449 -2.32093,-2.297002 -0.83744,-1.459553 -0.83744,-3.30194 0,-1.842386 0.78959,-3.301939 0.81352,-1.459553 2.20129,-2.273075 1.4117,-0.813521 3.15838,-0.813521 1.74668,0 3.13445,0.813521 1.38777,0.813522 2.17737,2.273075 0.78959,1.435626 0.78959,3.301939 z m -6.07748,-5.455379 q -1.81846,0 -3.06267,1.172428 -1.22028,1.148501 -1.38777,3.014814 h 8.92481 q -0.16749,-1.866313 -1.4117,-3.014814 -1.22028,-1.172428 -3.06267,-1.172428 z"
             style="font-style:normal;font-variant:normal;font-weight:normal;font-stretch:normal;font-family:Montserrat;-inkscape-font-specification:Montserrat;fill:#ffffff;fill-opacity:1;stroke-width:1.38402"
             id="path933" />
          <path
             d="m 369.14141,68.723594 q 0.59818,-1.268136 1.77061,-1.914167 1.19635,-0.646032 2.94303,-0.646032 v 1.65097 l -0.40676,-0.02393 q -1.98595,0 -3.11053,1.220282 -1.12457,1.220282 -1.12457,3.421575 v 6.412462 h -1.69882 V 66.259103 h 1.62704 z"
             style="font-style:normal;font-variant:normal;font-weight:normal;font-stretch:normal;font-family:Montserrat;-inkscape-font-specification:Montserrat;fill:#ffffff;fill-opacity:1;stroke-width:1.38402"
             id="path935" />
          <path
             d="m 390.00579,78.07909 q -0.47854,0.430688 -1.19635,0.669959 -0.69389,0.215344 -1.45956,0.215344 -1.7706,0 -2.72769,-0.957084 -0.95708,-0.957084 -0.95708,-2.703762 v -7.608818 h -2.24915 v -1.435626 h 2.24915 v -2.751616 h 1.69882 v 2.751616 h 3.82834 v 1.435626 h -3.82834 v 7.513109 q 0,1.124574 0.55033,1.722752 0.57425,0.57425 1.62704,0.57425 0.5264,0 1.00494,-0.16749 0.50247,-0.167489 0.86137,-0.478542 z"
             style="font-style:normal;font-variant:normal;font-weight:normal;font-stretch:normal;font-family:Montserrat;-inkscape-font-specification:Montserrat;fill:#ffffff;fill-opacity:1;stroke-width:1.38402"
             id="path937" />
          <path
             d="m 399.5048,66.163395 q 2.36878,0 3.75656,1.387772 1.4117,1.363844 1.4117,3.995825 v 7.297765 h -1.69883 v -7.130275 q 0,-1.962022 -0.98101,-2.990888 -0.98101,-1.028865 -2.79947,-1.028865 -2.0338,0 -3.23016,1.220282 -1.17243,1.196355 -1.17243,3.325867 v 6.603879 h -1.69882 V 61.09085 h 1.69882 v 7.369546 q 0.69389,-1.100646 1.91417,-1.698824 1.22028,-0.598177 2.79947,-0.598177 z"
             style="font-style:normal;font-variant:normal;font-weight:normal;font-stretch:normal;font-family:Montserrat;-inkscape-font-specification:Montserrat;fill:#ffffff;fill-opacity:1;stroke-width:1.38402"
             id="path939" />
          <path
             d="m 420.29738,73.078327 h -10.52792 q 0.14356,1.962022 1.5074,3.182304 1.36385,1.196355 3.44551,1.196355 1.17242,0 2.15344,-0.406761 0.98101,-0.430688 1.69882,-1.244209 l 0.95708,1.100646 q -0.83745,1.004939 -2.10558,1.531335 -1.24421,0.526396 -2.75162,0.526396 -1.93809,0 -3.4455,-0.813521 -1.48348,-0.837449 -2.32093,-2.297002 -0.83745,-1.459553 -0.83745,-3.30194 0,-1.842386 0.7896,-3.301939 0.81352,-1.459553 2.20129,-2.273075 1.4117,-0.813521 3.15838,-0.813521 1.74668,0 3.13445,0.813521 1.38777,0.813522 2.17736,2.273075 0.7896,1.435626 0.7896,3.301939 z m -6.07748,-5.455379 q -1.81846,0 -3.06267,1.172428 -1.22028,1.148501 -1.38777,3.014814 h 8.9248 q -0.16749,-1.866313 -1.41169,-3.014814 -1.22029,-1.172428 -3.06267,-1.172428 z"
             style="font-style:normal;font-variant:normal;font-weight:normal;font-stretch:normal;font-family:Montserrat;-inkscape-font-specification:Montserrat;fill:#ffffff;fill-opacity:1;stroke-width:1.38402"
             id="path941" />
          <path
             d="m 441.01819,73.078327 h -10.52792 q 0.14356,1.962022 1.5074,3.182304 1.36385,1.196355 3.44551,1.196355 1.17242,0 2.15343,-0.406761 0.98102,-0.430688 1.69883,-1.244209 l 0.95708,1.100646 q -0.83745,1.004939 -2.10558,1.531335 -1.24421,0.526396 -2.75162,0.526396 -1.93809,0 -3.4455,-0.813521 -1.48348,-0.837449 -2.32093,-2.297002 -0.83745,-1.459553 -0.83745,-3.30194 0,-1.842386 0.7896,-3.301939 0.81352,-1.459553 2.20129,-2.273075 1.4117,-0.813521 3.15838,-0.813521 1.74668,0 3.13445,0.813521 1.38777,0.813522 2.17736,2.273075 0.7896,1.435626 0.7896,3.301939 z m -6.07748,-5.455379 q -1.81846,0 -3.06267,1.172428 -1.22028,1.148501 -1.38777,3.014814 h 8.9248 q -0.16749,-1.866313 -1.41169,-3.014814 -1.22029,-1.172428 -3.06267,-1.172428 z"
             style="font-style:normal;font-variant:normal;font-weight:normal;font-stretch:normal;font-family:Montserrat;-inkscape-font-specification:Montserrat;fill:#ffffff;fill-opacity:1;stroke-width:1.38402"
             id="path943" />
          <path
             d="m 455.99652,61.09085 v 17.753907 h -1.62704 v -2.488418 q -0.76567,1.268136 -2.03381,1.938095 -1.2442,0.669959 -2.82339,0.669959 -1.77061,0 -3.20623,-0.813521 -1.43563,-0.813522 -2.24915,-2.273075 -0.81352,-1.459553 -0.81352,-3.325867 0,-1.866313 0.81352,-3.325866 0.81352,-1.459553 2.24915,-2.249148 1.43562,-0.813521 3.20623,-0.813521 1.53133,0 2.75161,0.646032 1.24421,0.622104 2.03381,1.842386 V 61.09085 Z m -6.34068,16.366136 q 1.31599,0 2.36878,-0.598178 1.07672,-0.622104 1.6749,-1.746678 0.6221,-1.124574 0.6221,-2.5602 0,-1.435626 -0.6221,-2.560199 -0.59818,-1.124574 -1.6749,-1.722751 -1.05279,-0.622105 -2.36878,-0.622105 -1.33992,0 -2.41664,0.622105 -1.05279,0.598177 -1.67489,1.722751 -0.59818,1.124573 -0.59818,2.560199 0,1.435626 0.59818,2.5602 0.6221,1.124574 1.67489,1.746678 1.07672,0.598178 2.41664,0.598178 z"
             style="font-style:normal;font-variant:normal;font-weight:normal;font-stretch:normal;font-family:Montserrat;-inkscape-font-specification:Montserrat;fill:#ffffff;fill-opacity:1;stroke-width:1.38402"
             id="path945" />
          <path
             d="m 460.73408,66.259103 h 1.69882 v 12.585654 h -1.69882 z m 0.86137,-2.751616 q -0.52639,0 -0.8853,-0.358907 -0.35891,-0.358906 -0.35891,-0.861375 0,-0.478542 0.35891,-0.837449 0.35891,-0.358906 0.8853,-0.358906 0.5264,0 0.88531,0.358906 0.3589,0.33498 0.3589,0.813522 0,0.526396 -0.3589,0.885302 -0.35891,0.358907 -0.88531,0.358907 z"
             style="font-style:normal;font-variant:normal;font-weight:normal;font-stretch:normal;font-family:Montserrat;-inkscape-font-specification:Montserrat;fill:#ffffff;fill-opacity:1;stroke-width:1.38402"
             id="path947" />
          <path
             d="m 473.79823,78.07909 q -0.47855,0.430688 -1.19636,0.669959 -0.69389,0.215344 -1.45955,0.215344 -1.77061,0 -2.72769,-0.957084 -0.95709,-0.957084 -0.95709,-2.703762 v -7.608818 h -2.24914 v -1.435626 h 2.24914 v -2.751616 h 1.69883 v 2.751616 h 3.82833 v 1.435626 h -3.82833 v 7.513109 q 0,1.124574 0.55032,1.722752 0.57425,0.57425 1.62704,0.57425 0.5264,0 1.00494,-0.16749 0.50247,-0.167489 0.86138,-0.478542 z"
             style="font-style:normal;font-variant:normal;font-weight:normal;font-stretch:normal;font-family:Montserrat;-inkscape-font-specification:Montserrat;fill:#ffffff;fill-opacity:1;stroke-width:1.38402"
             id="path949" />
          <path
             d="m 498.84984,66.163395 q 2.36878,0 3.7087,1.363845 1.36385,1.363844 1.36385,4.019752 v 7.297765 h -1.69883 v -7.130275 q 0,-1.962022 -0.95708,-2.990888 -0.93316,-1.028865 -2.65591,-1.028865 -1.96202,0 -3.0866,1.220282 -1.12457,1.196355 -1.12457,3.325867 v 6.603879 h -1.69882 v -7.130275 q 0,-1.962022 -0.95709,-2.990888 -0.93315,-1.028865 -2.67983,-1.028865 -1.9381,0 -3.0866,1.220282 -1.12457,1.196355 -1.12457,3.325867 v 6.603879 h -1.69883 V 66.259103 h 1.62705 v 2.297002 q 0.66996,-1.148501 1.86631,-1.770606 1.19636,-0.622104 2.75162,-0.622104 1.57919,0 2.72769,0.669959 1.17242,0.669958 1.74667,1.985949 0.69389,-1.244209 1.98595,-1.938095 1.31599,-0.717813 2.99089,-0.717813 z"
             style="font-style:normal;font-variant:normal;font-weight:normal;font-stretch:normal;font-family:Montserrat;-inkscape-font-specification:Montserrat;fill:#ffffff;fill-opacity:1;stroke-width:1.38402"
             id="path951" />
          <path
             d="m 513.73244,78.964393 q -1.81846,0 -3.27801,-0.813521 -1.45956,-0.837449 -2.29701,-2.297002 -0.83744,-1.459553 -0.83744,-3.30194 0,-1.842386 0.83744,-3.301939 0.83745,-1.459553 2.29701,-2.273075 1.45955,-0.813521 3.27801,-0.813521 1.81846,0 3.27801,0.813521 1.45955,0.813522 2.27308,2.273075 0.83744,1.459553 0.83744,3.301939 0,1.842387 -0.83744,3.30194 -0.81353,1.459553 -2.27308,2.297002 -1.45955,0.813521 -3.27801,0.813521 z m 0,-1.507407 q 1.33992,0 2.39271,-0.598178 1.07672,-0.622104 1.6749,-1.746678 0.59817,-1.124574 0.59817,-2.5602 0,-1.435626 -0.59817,-2.560199 -0.59818,-1.124574 -1.6749,-1.722751 -1.05279,-0.622105 -2.39271,-0.622105 -1.33992,0 -2.41664,0.622105 -1.05279,0.598177 -1.67489,1.722751 -0.59818,1.124573 -0.59818,2.560199 0,1.435626 0.59818,2.5602 0.6221,1.124574 1.67489,1.746678 1.07672,0.598178 2.41664,0.598178 z"
             style="font-style:normal;font-variant:normal;font-weight:normal;font-stretch:normal;font-family:Montserrat;-inkscape-font-specification:Montserrat;fill:#ffffff;fill-opacity:1;stroke-width:1.38402"
             id="path953" />
          <path
             d="m 535.07541,61.09085 v 17.753907 h -1.62704 v -2.488418 q -0.76567,1.268136 -2.03381,1.938095 -1.24421,0.669959 -2.82339,0.669959 -1.77061,0 -3.20624,-0.813521 -1.43562,-0.813522 -2.24914,-2.273075 -0.81352,-1.459553 -0.81352,-3.325867 0,-1.866313 0.81352,-3.325866 0.81352,-1.459553 2.24914,-2.249148 1.43563,-0.813521 3.20624,-0.813521 1.53133,0 2.75161,0.646032 1.24421,0.622104 2.03381,1.842386 V 61.09085 Z m -6.34068,16.366136 q 1.31599,0 2.36878,-0.598178 1.07672,-0.622104 1.6749,-1.746678 0.6221,-1.124574 0.6221,-2.5602 0,-1.435626 -0.6221,-2.560199 -0.59818,-1.124574 -1.6749,-1.722751 -1.05279,-0.622105 -2.36878,-0.622105 -1.33992,0 -2.41664,0.622105 -1.05279,0.598177 -1.6749,1.722751 -0.59817,1.124573 -0.59817,2.560199 0,1.435626 0.59817,2.5602 0.62211,1.124574 1.6749,1.746678 1.07672,0.598178 2.41664,0.598178 z"
             style="font-style:normal;font-variant:normal;font-weight:normal;font-stretch:normal;font-family:Montserrat;-inkscape-font-specification:Montserrat;fill:#ffffff;fill-opacity:1;stroke-width:1.38402"
             id="path955" />
          <path
             d="m 550.77155,73.078327 h -10.52793 q 0.14357,1.962022 1.50741,3.182304 1.36385,1.196355 3.4455,1.196355 1.17243,0 2.15344,-0.406761 0.98101,-0.430688 1.69883,-1.244209 l 0.95708,1.100646 q -0.83745,1.004939 -2.10558,1.531335 -1.24421,0.526396 -2.75162,0.526396 -1.9381,0 -3.4455,-0.813521 -1.48348,-0.837449 -2.32093,-2.297002 -0.83745,-1.459553 -0.83745,-3.30194 0,-1.842386 0.78959,-3.301939 0.81353,-1.459553 2.2013,-2.273075 1.4117,-0.813521 3.15837,-0.813521 1.74668,0 3.13445,0.813521 1.38778,0.813522 2.17737,2.273075 0.78959,1.435626 0.78959,3.301939 z m -6.07749,-5.455379 q -1.81846,0 -3.06266,1.172428 -1.22029,1.148501 -1.38778,3.014814 h 8.92481 q -0.16749,-1.866313 -1.4117,-3.014814 -1.22028,-1.172428 -3.06267,-1.172428 z"
             style="font-style:normal;font-variant:normal;font-weight:normal;font-stretch:normal;font-family:Montserrat;-inkscape-font-specification:Montserrat;fill:#ffffff;fill-opacity:1;stroke-width:1.38402"
             id="path957" />
          <path
             d="m 567.018,66.163395 q 1.77061,0 3.20624,0.813521 1.43562,0.789595 2.24914,2.249148 0.81352,1.459553 0.81352,3.325866 0,1.866314 -0.81352,3.325867 -0.81352,1.459553 -2.24914,2.273075 -1.43563,0.813521 -3.20624,0.813521 -1.57918,0 -2.84732,-0.669959 -1.24421,-0.669959 -2.00988,-1.938095 v 2.488418 h -1.62704 V 61.09085 h 1.69882 v 7.560963 q 0.7896,-1.220282 2.00988,-1.842386 1.24421,-0.646032 2.77554,-0.646032 z m -0.11963,11.293591 q 1.31599,0 2.39271,-0.598178 1.07672,-0.622104 1.6749,-1.746678 0.6221,-1.124574 0.6221,-2.5602 0,-1.435626 -0.6221,-2.560199 -0.59818,-1.124574 -1.6749,-1.722751 -1.07672,-0.622105 -2.39271,-0.622105 -1.33992,0 -2.41664,0.622105 -1.05279,0.598177 -1.67489,1.722751 -0.59818,1.124573 -0.59818,2.560199 0,1.435626 0.59818,2.5602 0.6221,1.124574 1.67489,1.746678 1.07672,0.598178 2.41664,0.598178 z"
             style="font-style:normal;font-variant:normal;font-weight:normal;font-stretch:normal;font-family:Montserrat;-inkscape-font-specification:Montserrat;fill:#ffffff;fill-opacity:1;stroke-width:1.38402"
             id="path959" />
          <path
             d="m 586.97316,66.259103 -6.29283,14.093062 q -0.76567,1.770605 -1.77061,2.512345 -1.00493,0.74174 -2.41663,0.74174 -0.90923,0 -1.69883,-0.287125 -0.78959,-0.287125 -1.36384,-0.861376 l 0.78959,-1.268136 q 0.95709,0.957084 2.297,0.957084 0.86138,0 1.45956,-0.478542 0.6221,-0.478542 1.1485,-1.627043 l 0.55032,-1.220282 -5.62287,-12.561727 h 1.77061 l 4.73756,10.695414 4.73757,-10.695414 z"
             style="font-style:normal;font-variant:normal;font-weight:normal;font-stretch:normal;font-family:Montserrat;-inkscape-font-specification:Montserrat;fill:#ffffff;fill-opacity:1;stroke-width:1.38402"
             id="path961" />
          <path
             d="m 600.85085,78.964393 q -1.86631,0 -3.34979,-0.813521 -1.45956,-0.813522 -2.297,-2.273075 -0.83745,-1.48348 -0.83745,-3.325867 0,-1.842386 0.83745,-3.301939 0.83744,-1.459553 2.297,-2.273075 1.48348,-0.813521 3.34979,-0.813521 1.62704,0 2.89518,0.646032 1.29206,0.622104 2.0338,1.842386 l -1.26813,0.861376 q -0.62211,-0.933157 -1.57919,-1.387772 -0.95709,-0.478542 -2.08166,-0.478542 -1.36384,0 -2.46449,0.622105 -1.07672,0.598177 -1.69882,1.722751 -0.59818,1.124573 -0.59818,2.560199 0,1.459553 0.59818,2.584127 0.6221,1.100647 1.69882,1.722751 1.10065,0.598178 2.46449,0.598178 1.12457,0 2.08166,-0.454615 0.95708,-0.454615 1.57919,-1.387772 l 1.26813,0.861376 q -0.74174,1.220282 -2.0338,1.866313 -1.29206,0.622105 -2.89518,0.622105 z"
             style="font-style:normal;font-variant:normal;font-weight:normal;font-stretch:normal;font-family:Montserrat;-inkscape-font-specification:Montserrat;fill:#ffffff;fill-opacity:1;stroke-width:1.38402"
             id="path963" />
          <path
             d="m 608.91425,61.09085 h 1.69883 v 17.753907 h -1.69883 z"
             style="font-style:normal;font-variant:normal;font-weight:normal;font-stretch:normal;font-family:Montserrat;-inkscape-font-specification:Montserrat;fill:#ffffff;fill-opacity:1;stroke-width:1.38402"
             id="path965" />
          <path
             d="m 615.35062,66.259103 h 1.69883 v 12.585654 h -1.69883 z m 0.86138,-2.751616 q -0.5264,0 -0.8853,-0.358907 -0.35891,-0.358906 -0.35891,-0.861375 0,-0.478542 0.35891,-0.837449 0.3589,-0.358906 0.8853,-0.358906 0.5264,0 0.8853,0.358906 0.35891,0.33498 0.35891,0.813522 0,0.526396 -0.35891,0.885302 -0.3589,0.358907 -0.8853,0.358907 z"
             style="font-style:normal;font-variant:normal;font-weight:normal;font-stretch:normal;font-family:Montserrat;-inkscape-font-specification:Montserrat;fill:#ffffff;fill-opacity:1;stroke-width:1.38402"
             id="path967" />
          <path
             d="m 627.00307,78.964393 q -1.86631,0 -3.34979,-0.813521 -1.45955,-0.813522 -2.297,-2.273075 -0.83745,-1.48348 -0.83745,-3.325867 0,-1.842386 0.83745,-3.301939 0.83745,-1.459553 2.297,-2.273075 1.48348,-0.813521 3.34979,-0.813521 1.62705,0 2.89518,0.646032 1.29207,0.622104 2.03381,1.842386 l -1.26814,0.861376 q -0.62211,-0.933157 -1.57919,-1.387772 -0.95708,-0.478542 -2.08166,-0.478542 -1.36384,0 -2.46449,0.622105 -1.07672,0.598177 -1.69882,1.722751 -0.59818,1.124573 -0.59818,2.560199 0,1.459553 0.59818,2.584127 0.6221,1.100647 1.69882,1.722751 1.10065,0.598178 2.46449,0.598178 1.12458,0 2.08166,-0.454615 0.95708,-0.454615 1.57919,-1.387772 l 1.26814,0.861376 q -0.74174,1.220282 -2.03381,1.866313 -1.29206,0.622105 -2.89518,0.622105 z"
             style="font-style:normal;font-variant:normal;font-weight:normal;font-stretch:normal;font-family:Montserrat;-inkscape-font-specification:Montserrat;fill:#ffffff;fill-opacity:1;stroke-width:1.38402"
             id="path969" />
          <path
             d="m 639.73226,72.528003 -2.96696,2.72769 v 3.589064 h -1.69882 V 61.09085 h 1.69882 v 12.035331 l 7.51311,-6.867078 h 2.10558 l -5.38359,5.144327 5.88606,7.441327 h -2.08165 z"
             style="font-style:normal;font-variant:normal;font-weight:normal;font-stretch:normal;font-family:Montserrat;-inkscape-font-specification:Montserrat;fill:#ffffff;fill-opacity:1;stroke-width:1.38402"
             id="path971" />
          <path
             d="m 649.25523,66.259103 h 1.69882 v 12.585654 h -1.69882 z m 0.86137,-2.751616 q -0.52639,0 -0.8853,-0.358907 -0.35891,-0.358906 -0.35891,-0.861375 0,-0.478542 0.35891,-0.837449 0.35891,-0.358906 0.8853,-0.358906 0.5264,0 0.88531,0.358906 0.3589,0.33498 0.3589,0.813522 0,0.526396 -0.3589,0.885302 -0.35891,0.358907 -0.88531,0.358907 z"
             style="font-style:normal;font-variant:normal;font-weight:normal;font-stretch:normal;font-family:Montserrat;-inkscape-font-specification:Montserrat;fill:#ffffff;fill-opacity:1;stroke-width:1.38402"
             id="path973" />
          <path
             d="m 662.10403,66.163395 q 2.36878,0 3.75655,1.387772 1.4117,1.363844 1.4117,3.995825 v 7.297765 h -1.69882 v -7.130275 q 0,-1.962022 -0.98101,-2.990888 -0.98101,-1.028865 -2.79947,-1.028865 -2.03381,0 -3.23016,1.220282 -1.17243,1.196355 -1.17243,3.325867 v 6.603879 h -1.69882 V 66.259103 h 1.62704 v 2.320929 q 0.69389,-1.148501 1.91417,-1.770605 1.24421,-0.646032 2.87125,-0.646032 z"
             style="font-style:normal;font-variant:normal;font-weight:normal;font-stretch:normal;font-family:Montserrat;-inkscape-font-specification:Montserrat;fill:#ffffff;fill-opacity:1;stroke-width:1.38402"
             id="path975" />
          <path
             d="m 683.59049,66.259103 v 11.05432 q 0,3.206231 -1.57918,4.737566 -1.55527,1.555261 -4.71364,1.555261 -1.74668,0 -3.32587,-0.526396 -1.55526,-0.502469 -2.53627,-1.411699 l 0.86137,-1.292063 q 0.90923,0.813521 2.2013,1.268136 1.31599,0.454615 2.75161,0.454615 2.39271,0 3.51729,-1.124574 1.12457,-1.100646 1.12457,-3.445502 v -1.603116 q -0.78959,1.196355 -2.08166,1.81846 -1.26813,0.622104 -2.8234,0.622104 -1.7706,0 -3.23015,-0.765667 -1.43563,-0.789594 -2.27308,-2.177366 -0.81352,-1.411699 -0.81352,-3.182304 0,-1.770605 0.81352,-3.158377 0.83745,-1.387772 2.27308,-2.153439 1.43562,-0.765667 3.23015,-0.765667 1.60312,0 2.89518,0.646032 1.29207,0.646031 2.08166,1.866313 v -2.416637 z m -6.43639,10.599705 q 1.36385,0 2.4645,-0.57425 1.10064,-0.598178 1.69882,-1.65097 0.6221,-1.052792 0.6221,-2.39271 0,-1.339917 -0.6221,-2.368783 -0.59818,-1.052792 -1.69882,-1.627042 -1.07672,-0.598178 -2.4645,-0.598178 -1.36384,0 -2.46449,0.57425 -1.07672,0.574251 -1.69882,1.627043 -0.59818,1.052793 -0.59818,2.39271 0,1.339918 0.59818,2.39271 0.6221,1.052792 1.69882,1.65097 1.10065,0.57425 2.46449,0.57425 z"
             style="font-style:normal;font-variant:normal;font-weight:normal;font-stretch:normal;font-family:Montserrat;-inkscape-font-specification:Montserrat;fill:#ffffff;fill-opacity:1;stroke-width:1.38402"
             id="path977" />
          <path
             d="m 185.35792,107.98796 q -0.47854,0.43069 -1.19636,0.66996 -0.69388,0.21535 -1.45955,0.21535 -1.77061,0 -2.72769,-0.95709 -0.95708,-0.95708 -0.95708,-2.70376 v -7.608816 h -2.24915 v -1.435626 h 2.24915 v -2.751617 h 1.69882 v 2.751617 h 3.82834 v 1.435626 h -3.82834 v 7.513106 q 0,1.12458 0.55032,1.72275 0.57425,0.57425 1.62705,0.57425 0.52639,0 1.00493,-0.16749 0.50247,-0.16748 0.86138,-0.47854 z"
             style="font-style:normal;font-variant:normal;font-weight:normal;font-stretch:normal;font-family:Montserrat;-inkscape-font-specification:Montserrat;fill:#ffffff;fill-opacity:1;stroke-width:1.38402"
             id="path979" />
          <path
             d="m 194.85693,96.072269 q 2.36879,0 3.75656,1.387772 1.4117,1.363845 1.4117,3.995829 v 7.29776 h -1.69883 v -7.13027 q 0,-1.962026 -0.98101,-2.990891 -0.98101,-1.028865 -2.79947,-1.028865 -2.0338,0 -3.23016,1.220282 -1.17242,1.196354 -1.17242,3.325864 v 6.60388 h -1.69883 V 90.999724 h 1.69883 v 7.369547 q 0.69388,-1.100647 1.91416,-1.698824 1.22029,-0.598178 2.79947,-0.598178 z"
             style="font-style:normal;font-variant:normal;font-weight:normal;font-stretch:normal;font-family:Montserrat;-inkscape-font-specification:Montserrat;fill:#ffffff;fill-opacity:1;stroke-width:1.38402"
             id="path981" />
          <path
             d="m 215.64951,102.9872 h -10.52792 q 0.14356,1.96202 1.5074,3.18231 1.36385,1.19635 3.44551,1.19635 1.17242,0 2.15344,-0.40676 0.98101,-0.43069 1.69882,-1.24421 l 0.95708,1.10065 q -0.83744,1.00494 -2.10558,1.53133 -1.24421,0.5264 -2.75162,0.5264 -1.93809,0 -3.4455,-0.81352 -1.48348,-0.83745 -2.32093,-2.29701 -0.83745,-1.45955 -0.83745,-3.30194 0,-1.84238 0.7896,-3.301935 0.81352,-1.459553 2.20129,-2.273074 1.4117,-0.813522 3.15838,-0.813522 1.74668,0 3.13445,0.813522 1.38777,0.813521 2.17736,2.273074 0.7896,1.435625 0.7896,3.301935 z m -6.07748,-5.455378 q -1.81846,0 -3.06267,1.172428 -1.22028,1.148501 -1.38777,3.01481 h 8.92481 q -0.16749,-1.866309 -1.4117,-3.01481 -1.22029,-1.172428 -3.06267,-1.172428 z"
             style="font-style:normal;font-variant:normal;font-weight:normal;font-stretch:normal;font-family:Montserrat;-inkscape-font-specification:Montserrat;fill:#ffffff;fill-opacity:1;stroke-width:1.38402"
             id="path983" />
          <path
             d="m 263.24035,96.072269 q 1.7706,0 3.20623,0.813522 1.43563,0.789594 2.24915,2.249147 0.81352,1.459552 0.81352,3.325862 0,1.86632 -0.81352,3.32587 -0.81352,1.45955 -2.24915,2.27308 -1.43563,0.81352 -3.20623,0.81352 -1.57919,0 -2.84733,-0.66996 -1.24421,-0.66996 -2.00987,-1.9381 v 2.48842 H 256.7561 V 90.999724 h 1.69883 v 7.560964 q 0.78959,-1.220282 2.00987,-1.842387 1.24421,-0.646032 2.77555,-0.646032 z m -0.11964,11.293591 q 1.31599,0 2.39271,-0.59818 1.07672,-0.6221 1.6749,-1.74668 0.6221,-1.12457 0.6221,-2.5602 0,-1.43562 -0.6221,-2.560195 -0.59818,-1.124573 -1.6749,-1.722751 -1.07672,-0.622104 -2.39271,-0.622104 -1.33991,0 -2.41663,0.622104 -1.0528,0.598178 -1.6749,1.722751 -0.59818,1.124575 -0.59818,2.560195 0,1.43563 0.59818,2.5602 0.6221,1.12458 1.6749,1.74668 1.07672,0.59818 2.41663,0.59818 z"
             style="font-style:normal;font-variant:normal;font-weight:normal;font-stretch:normal;font-family:Montserrat;-inkscape-font-specification:Montserrat;fill:#ffffff;fill-opacity:1;stroke-width:1.38402"
             id="path985" />
          <path
             d="m 284.32011,96.167978 v 12.585652 h -1.62705 v -2.297 q -0.66996,1.1485 -1.84238,1.79453 -1.17243,0.62211 -2.67984,0.62211 -2.46449,0 -3.90012,-1.36385 -1.41169,-1.38777 -1.41169,-4.04368 v -7.297762 h 1.69882 v 7.130272 q 0,1.98595 0.98101,3.01482 0.98101,1.02886 2.79947,1.02886 1.98595,0 3.13445,-1.19635 1.1485,-1.22028 1.1485,-3.37372 v -6.603882 z"
             style="font-style:normal;font-variant:normal;font-weight:normal;font-stretch:normal;font-family:Montserrat;-inkscape-font-specification:Montserrat;fill:#ffffff;fill-opacity:1;stroke-width:1.38402"
             id="path987" />
          <path
             d="m 295.70937,107.98796 q -0.47855,0.43069 -1.19636,0.66996 -0.69389,0.21535 -1.45955,0.21535 -1.77061,0 -2.72769,-0.95709 -0.95709,-0.95708 -0.95709,-2.70376 v -7.608816 h -2.24914 v -1.435626 h 2.24914 v -2.751617 h 1.69883 v 2.751617 h 3.82833 v 1.435626 h -3.82833 v 7.513106 q 0,1.12458 0.55032,1.72275 0.57425,0.57425 1.62704,0.57425 0.5264,0 1.00494,-0.16749 0.50247,-0.16748 0.86138,-0.47854 z"
             style="font-style:normal;font-variant:normal;font-weight:normal;font-stretch:normal;font-family:Montserrat;-inkscape-font-specification:Montserrat;fill:#ffffff;fill-opacity:1;stroke-width:1.38402"
             id="path989" />
          <path
             d="m 305.08871,107.98796 q -0.47855,0.43069 -1.19636,0.66996 -0.69388,0.21535 -1.45955,0.21535 -1.77061,0 -2.72769,-0.95709 -0.95708,-0.95708 -0.95708,-2.70376 v -7.608816 h -2.24915 v -1.435626 h 2.24915 v -2.751617 h 1.69882 v 2.751617 h 3.82834 v 1.435626 h -3.82834 v 7.513106 q 0,1.12458 0.55032,1.72275 0.57425,0.57425 1.62705,0.57425 0.52639,0 1.00493,-0.16749 0.50247,-0.16748 0.86138,-0.47854 z"
             style="font-style:normal;font-variant:normal;font-weight:normal;font-stretch:normal;font-family:Montserrat;-inkscape-font-specification:Montserrat;fill:#ffffff;fill-opacity:1;stroke-width:1.38402"
             id="path991" />
          <path
             d="m 312.86495,108.87327 q -1.81846,0 -3.27802,-0.81352 -1.45955,-0.83745 -2.297,-2.29701 -0.83745,-1.45955 -0.83745,-3.30194 0,-1.84238 0.83745,-3.301935 0.83745,-1.459553 2.297,-2.273074 1.45956,-0.813522 3.27802,-0.813522 1.81846,0 3.27801,0.813522 1.45955,0.813521 2.27307,2.273074 0.83745,1.459555 0.83745,3.301935 0,1.84239 -0.83745,3.30194 -0.81352,1.45956 -2.27307,2.29701 -1.45955,0.81352 -3.27801,0.81352 z m 0,-1.50741 q 1.33991,0 2.39271,-0.59818 1.07672,-0.6221 1.67489,-1.74668 0.59818,-1.12457 0.59818,-2.5602 0,-1.43562 -0.59818,-2.560195 -0.59817,-1.124573 -1.67489,-1.722751 -1.0528,-0.622104 -2.39271,-0.622104 -1.33992,0 -2.41664,0.622104 -1.05279,0.598178 -1.6749,1.722751 -0.59818,1.124575 -0.59818,2.560195 0,1.43563 0.59818,2.5602 0.62211,1.12458 1.6749,1.74668 1.07672,0.59818 2.41664,0.59818 z"
             style="font-style:normal;font-variant:normal;font-weight:normal;font-stretch:normal;font-family:Montserrat;-inkscape-font-specification:Montserrat;fill:#ffffff;fill-opacity:1;stroke-width:1.38402"
             id="path993" />
          <path
             d="m 329.13534,96.072269 q 2.36878,0 3.75656,1.387772 1.41169,1.363845 1.41169,3.995829 v 7.29776 h -1.69882 v -7.13027 q 0,-1.962026 -0.98101,-2.990891 -0.98101,-1.028865 -2.79947,-1.028865 -2.0338,0 -3.23016,1.220282 -1.17243,1.196354 -1.17243,3.325864 v 6.60388 h -1.69882 V 96.167978 h 1.62704 v 2.320928 q 0.69389,-1.1485 1.91417,-1.770605 1.24421,-0.646032 2.87125,-0.646032 z"
             style="font-style:normal;font-variant:normal;font-weight:normal;font-stretch:normal;font-family:Montserrat;-inkscape-font-specification:Montserrat;fill:#ffffff;fill-opacity:1;stroke-width:1.38402"
             id="path995" />
          <path
             d="m 349.59295,96.072269 q 2.46449,0 3.78048,1.24421 1.31599,1.220282 1.31599,3.636921 v 7.80023 h -1.62704 v -1.96202 q -0.57425,0.98101 -1.69883,1.53133 -1.10064,0.55033 -2.63198,0.55033 -2.10558,0 -3.34979,-1.00494 -1.24421,-1.00494 -1.24421,-2.65591 0,-1.60311 1.1485,-2.58413 1.17243,-0.98101 3.7087,-0.98101 h 3.99583 v -0.76566 q 0,-1.627046 -0.90923,-2.464495 -0.90923,-0.861375 -2.65591,-0.861375 -1.19636,0 -2.297,0.40676 -1.10065,0.382834 -1.89024,1.07672 l -0.76567,-1.268137 q 0.95708,-0.813521 2.297,-1.244209 1.33992,-0.454615 2.8234,-0.454615 z m -0.59818,11.461081 q 1.43563,0 2.46449,-0.64603 1.02887,-0.66996 1.53134,-1.91417 v -2.05773 h -3.94798 q -3.23015,0 -3.23015,2.24915 0,1.10064 0.83744,1.74668 0.83745,0.6221 2.34486,0.6221 z"
             style="font-style:normal;font-variant:normal;font-weight:normal;font-stretch:normal;font-family:Montserrat;-inkscape-font-specification:Montserrat;fill:#ffffff;fill-opacity:1;stroke-width:1.38402"
             id="path997" />
          <path
             d="m 365.71977,96.072269 q 2.36878,0 3.75655,1.387772 1.4117,1.363845 1.4117,3.995829 v 7.29776 h -1.69882 v -7.13027 q 0,-1.962026 -0.98101,-2.990891 -0.98101,-1.028865 -2.79947,-1.028865 -2.03381,0 -3.23016,1.220282 -1.17243,1.196354 -1.17243,3.325864 v 6.60388 h -1.69882 V 96.167978 h 1.62704 v 2.320928 q 0.69388,-1.1485 1.91417,-1.770605 1.24421,-0.646032 2.87125,-0.646032 z"
             style="font-style:normal;font-variant:normal;font-weight:normal;font-stretch:normal;font-family:Montserrat;-inkscape-font-specification:Montserrat;fill:#ffffff;fill-opacity:1;stroke-width:1.38402"
             id="path999" />
          <path
             d="m 387.03874,90.999724 v 17.753906 h -1.62704 v -2.48842 q -0.76567,1.26814 -2.0338,1.9381 -1.24421,0.66996 -2.8234,0.66996 -1.77061,0 -3.20623,-0.81352 -1.43563,-0.81353 -2.24915,-2.27308 -0.81352,-1.45955 -0.81352,-3.32587 0,-1.86631 0.81352,-3.325862 0.81352,-1.459553 2.24915,-2.249147 1.43562,-0.813522 3.20623,-0.813522 1.53133,0 2.75161,0.646032 1.24421,0.622105 2.03381,1.842387 v -7.560964 z m -6.34068,16.366136 q 1.31599,0 2.36878,-0.59818 1.07672,-0.6221 1.6749,-1.74668 0.62211,-1.12457 0.62211,-2.5602 0,-1.43562 -0.62211,-2.560195 -0.59818,-1.124573 -1.6749,-1.722751 -1.05279,-0.622104 -2.36878,-0.622104 -1.33992,0 -2.41664,0.622104 -1.05279,0.598178 -1.67489,1.722751 -0.59818,1.124575 -0.59818,2.560195 0,1.43563 0.59818,2.5602 0.6221,1.12458 1.67489,1.74668 1.07672,0.59818 2.41664,0.59818 z"
             style="font-style:normal;font-variant:normal;font-weight:normal;font-stretch:normal;font-family:Montserrat;-inkscape-font-specification:Montserrat;fill:#ffffff;fill-opacity:1;stroke-width:1.38402"
             id="path1001" />
          <path
             d="m 401.4189,108.87327 q -1.53134,0 -2.94304,-0.43069 -1.38777,-0.45462 -2.17736,-1.12457 l 0.76566,-1.33992 q 0.7896,0.6221 1.98595,1.02886 1.19636,0.38284 2.48842,0.38284 1.72275,0 2.53627,-0.5264 0.83745,-0.55032 0.83745,-1.53133 0,-0.69389 -0.45461,-1.07672 -0.45462,-0.40676 -1.1485,-0.59818 -0.69389,-0.21534 -1.84239,-0.40676 -1.53133,-0.28713 -2.46449,-0.57425 -0.93316,-0.31105 -1.60312,-1.02887 -0.64603,-0.71781 -0.64603,-1.985946 0,-1.579188 1.31599,-2.584126 1.31599,-1.004939 3.66085,-1.004939 1.22028,0 2.44056,0.33498 1.22028,0.311052 2.00988,0.837448 l -0.74174,1.363845 q -1.55526,-1.07672 -3.7087,-1.07672 -1.62705,0 -2.46449,0.574251 -0.81352,0.57425 -0.81352,1.507407 0,0.71781 0.45461,1.1485 0.47854,0.43069 1.17243,0.64603 0.69388,0.19142 1.91417,0.40676 1.5074,0.28713 2.41663,0.57425 0.90923,0.28713 1.55526,0.98101 0.64604,0.69389 0.64604,1.91417 0,1.65097 -1.38778,2.63198 -1.36384,0.95709 -3.8044,0.95709 z"
             style="font-style:normal;font-variant:normal;font-weight:normal;font-stretch:normal;font-family:Montserrat;-inkscape-font-specification:Montserrat;fill:#ffffff;fill-opacity:1;stroke-width:1.38402"
             id="path1003" />
          <path
             d="m 416.3733,107.98796 q -0.47854,0.43069 -1.19636,0.66996 -0.69388,0.21535 -1.45955,0.21535 -1.77061,0 -2.72769,-0.95709 -0.95708,-0.95708 -0.95708,-2.70376 v -7.608816 h -2.24915 v -1.435626 h 2.24915 v -2.751617 h 1.69882 v 2.751617 h 3.82834 v 1.435626 h -3.82834 v 7.513106 q 0,1.12458 0.55032,1.72275 0.57425,0.57425 1.62705,0.57425 0.52639,0 1.00494,-0.16749 0.50246,-0.16748 0.86137,-0.47854 z"
             style="font-style:normal;font-variant:normal;font-weight:normal;font-stretch:normal;font-family:Montserrat;-inkscape-font-specification:Montserrat;fill:#ffffff;fill-opacity:1;stroke-width:1.38402"
             id="path1005" />
          <path
             d="m 423.86243,96.072269 q 2.46449,0 3.78049,1.24421 1.31599,1.220282 1.31599,3.636921 v 7.80023 h -1.62705 v -1.96202 q -0.57425,0.98101 -1.69882,1.53133 -1.10065,0.55033 -2.63198,0.55033 -2.10559,0 -3.3498,-1.00494 -1.24421,-1.00494 -1.24421,-2.65591 0,-1.60311 1.14851,-2.58413 1.17242,-0.98101 3.7087,-0.98101 h 3.99582 v -0.76566 q 0,-1.627046 -0.90923,-2.464495 -0.90923,-0.861375 -2.65591,-0.861375 -1.19635,0 -2.297,0.40676 -1.10064,0.382834 -1.89024,1.07672 l -0.76567,-1.268137 q 0.95709,-0.813521 2.29701,-1.244209 1.33991,-0.454615 2.82339,-0.454615 z m -0.59817,11.461081 q 1.43562,0 2.46449,-0.64603 1.02886,-0.66996 1.53133,-1.91417 v -2.05773 h -3.94797 q -3.23016,0 -3.23016,2.24915 0,1.10064 0.83745,1.74668 0.83745,0.6221 2.34486,0.6221 z"
             style="font-style:normal;font-variant:normal;font-weight:normal;font-stretch:normal;font-family:Montserrat;-inkscape-font-specification:Montserrat;fill:#ffffff;fill-opacity:1;stroke-width:1.38402"
             id="path1007" />
          <path
             d="m 435.20385,98.632469 q 0.59818,-1.268136 1.7706,-1.914168 1.19636,-0.646032 2.94304,-0.646032 v 1.65097 l -0.40676,-0.02393 q -1.98595,0 -3.11053,1.220282 -1.12457,1.220286 -1.12457,3.421576 v 6.41246 h -1.69882 V 96.167978 h 1.62704 z"
             style="font-style:normal;font-variant:normal;font-weight:normal;font-stretch:normal;font-family:Montserrat;-inkscape-font-specification:Montserrat;fill:#ffffff;fill-opacity:1;stroke-width:1.38402"
             id="path1009" />
          <path
             d="m 450.15824,107.98796 q -0.47854,0.43069 -1.19635,0.66996 -0.69389,0.21535 -1.45956,0.21535 -1.7706,0 -2.72769,-0.95709 -0.95708,-0.95708 -0.95708,-2.70376 v -7.608816 h -2.24915 v -1.435626 h 2.24915 v -2.751617 h 1.69882 v 2.751617 h 3.82834 v 1.435626 h -3.82834 v 7.513106 q 0,1.12458 0.55033,1.72275 0.57425,0.57425 1.62704,0.57425 0.5264,0 1.00494,-0.16749 0.50247,-0.16748 0.86137,-0.47854 z"
             style="font-style:normal;font-variant:normal;font-weight:normal;font-stretch:normal;font-family:Montserrat;-inkscape-font-specification:Montserrat;fill:#ffffff;fill-opacity:1;stroke-width:1.38402"
             id="path1011" />
          <path
             d="m 463.91627,96.072269 q 2.46449,0 3.78048,1.24421 1.31599,1.220282 1.31599,3.636921 v 7.80023 h -1.62704 v -1.96202 q -0.57425,0.98101 -1.69883,1.53133 -1.10064,0.55033 -2.63198,0.55033 -2.10558,0 -3.34979,-1.00494 -1.24421,-1.00494 -1.24421,-2.65591 0,-1.60311 1.1485,-2.58413 1.17243,-0.98101 3.7087,-0.98101 h 3.99582 v -0.76566 q 0,-1.627046 -0.90923,-2.464495 -0.90922,-0.861375 -2.6559,-0.861375 -1.19636,0 -2.297,0.40676 -1.10065,0.382834 -1.89025,1.07672 l -0.76566,-1.268137 q 0.95708,-0.813521 2.297,-1.244209 1.33992,-0.454615 2.8234,-0.454615 z m -0.59818,11.461081 q 1.43563,0 2.46449,-0.64603 1.02887,-0.66996 1.53133,-1.91417 v -2.05773 h -3.94797 q -3.23016,0 -3.23016,2.24915 0,1.10064 0.83745,1.74668 0.83745,0.6221 2.34486,0.6221 z"
             style="font-style:normal;font-variant:normal;font-weight:normal;font-stretch:normal;font-family:Montserrat;-inkscape-font-specification:Montserrat;fill:#ffffff;fill-opacity:1;stroke-width:1.38402"
             id="path1013" />
          <path
             d="m 485.16345,90.999724 v 17.753906 h -1.62704 v -2.48842 q -0.76567,1.26814 -2.0338,1.9381 -1.24421,0.66996 -2.8234,0.66996 -1.77061,0 -3.20623,-0.81352 -1.43563,-0.81353 -2.24915,-2.27308 -0.81352,-1.45955 -0.81352,-3.32587 0,-1.86631 0.81352,-3.325862 0.81352,-1.459553 2.24915,-2.249147 1.43562,-0.813522 3.20623,-0.813522 1.53133,0 2.75161,0.646032 1.24421,0.622105 2.03381,1.842387 v -7.560964 z m -6.34068,16.366136 q 1.31599,0 2.36878,-0.59818 1.07672,-0.6221 1.6749,-1.74668 0.62211,-1.12457 0.62211,-2.5602 0,-1.43562 -0.62211,-2.560195 -0.59818,-1.124573 -1.6749,-1.722751 -1.05279,-0.622104 -2.36878,-0.622104 -1.33992,0 -2.41664,0.622104 -1.05279,0.598178 -1.67489,1.722751 -0.59818,1.124575 -0.59818,2.560195 0,1.43563 0.59818,2.5602 0.6221,1.12458 1.67489,1.74668 1.07672,0.59818 2.41664,0.59818 z"
             style="font-style:normal;font-variant:normal;font-weight:normal;font-stretch:normal;font-family:Montserrat;-inkscape-font-specification:Montserrat;fill:#ffffff;fill-opacity:1;stroke-width:1.38402"
             id="path1015" />
          <path
             d="m 501.38602,90.999724 v 17.753906 h -1.62705 v -2.48842 q -0.76566,1.26814 -2.0338,1.9381 -1.24421,0.66996 -2.8234,0.66996 -1.7706,0 -3.20623,-0.81352 -1.43562,-0.81353 -2.24915,-2.27308 -0.81352,-1.45955 -0.81352,-3.32587 0,-1.86631 0.81352,-3.325862 0.81353,-1.459553 2.24915,-2.249147 1.43563,-0.813522 3.20623,-0.813522 1.53134,0 2.75162,0.646032 1.24421,0.622105 2.0338,1.842387 v -7.560964 z m -6.34068,16.366136 q 1.31599,0 2.36878,-0.59818 1.07672,-0.6221 1.6749,-1.74668 0.6221,-1.12457 0.6221,-2.5602 0,-1.43562 -0.6221,-2.560195 -0.59818,-1.124573 -1.6749,-1.722751 -1.05279,-0.622104 -2.36878,-0.622104 -1.33992,0 -2.41664,0.622104 -1.05279,0.598178 -1.6749,1.722751 -0.59818,1.124575 -0.59818,2.560195 0,1.43563 0.59818,2.5602 0.62211,1.12458 1.6749,1.74668 1.07672,0.59818 2.41664,0.59818 z"
             style="font-style:normal;font-variant:normal;font-weight:normal;font-stretch:normal;font-family:Montserrat;-inkscape-font-specification:Montserrat;fill:#ffffff;fill-opacity:1;stroke-width:1.38402"
             id="path1017" />
          <path
             d="m 506.12357,96.167978 h 1.69883 v 12.585652 h -1.69883 z m 0.86138,-2.751617 q -0.5264,0 -0.8853,-0.358906 -0.35891,-0.358907 -0.35891,-0.861376 0,-0.478542 0.35891,-0.837448 0.3589,-0.358907 0.8853,-0.358907 0.5264,0 0.8853,0.358907 0.35891,0.334979 0.35891,0.813521 0,0.526396 -0.35891,0.885303 -0.3589,0.358906 -0.8853,0.358906 z"
             style="font-style:normal;font-variant:normal;font-weight:normal;font-stretch:normal;font-family:Montserrat;-inkscape-font-specification:Montserrat;fill:#ffffff;fill-opacity:1;stroke-width:1.38402"
             id="path1019" />
          <path
             d="m 518.97241,96.072269 q 2.36878,0 3.75655,1.387772 1.4117,1.363845 1.4117,3.995829 v 7.29776 h -1.69882 v -7.13027 q 0,-1.962026 -0.98101,-2.990891 -0.98102,-1.028865 -2.79947,-1.028865 -2.03381,0 -3.23016,1.220282 -1.17243,1.196354 -1.17243,3.325864 v 6.60388 h -1.69883 V 96.167978 h 1.62705 v 2.320928 q 0.69388,-1.1485 1.91417,-1.770605 1.2442,-0.646032 2.87125,-0.646032 z"
             style="font-style:normal;font-variant:normal;font-weight:normal;font-stretch:normal;font-family:Montserrat;-inkscape-font-specification:Montserrat;fill:#ffffff;fill-opacity:1;stroke-width:1.38402"
             id="path1021" />
          <path
             d="M 540.45887,96.167978 V 107.2223 q 0,3.20623 -1.57919,4.73756 -1.55526,1.55526 -4.71364,1.55526 -1.74667,0 -3.32586,-0.52639 -1.55526,-0.50247 -2.53627,-1.4117 l 0.86137,-1.29206 q 0.90923,0.81352 2.20129,1.26813 1.31599,0.45462 2.75162,0.45462 2.39271,0 3.51728,-1.12458 1.12458,-1.10064 1.12458,-3.4455 v -1.60311 q -0.7896,1.19635 -2.08166,1.81846 -1.26814,0.6221 -2.8234,0.6221 -1.7706,0 -3.23016,-0.76567 -1.43562,-0.78959 -2.27307,-2.17736 -0.81352,-1.4117 -0.81352,-3.18231 0,-1.7706 0.81352,-3.158375 0.83745,-1.387771 2.27307,-2.153438 1.43563,-0.765668 3.23016,-0.765668 1.60312,0 2.89518,0.646032 1.29206,0.646032 2.08166,1.866314 v -2.416637 z m -6.43639,10.599702 q 1.36385,0 2.46449,-0.57425 1.10065,-0.59818 1.69883,-1.65097 0.6221,-1.05279 0.6221,-2.39271 0,-1.33991 -0.6221,-2.36878 -0.59818,-1.052793 -1.69883,-1.627043 -1.07672,-0.598177 -2.46449,-0.598177 -1.36384,0 -2.46449,0.57425 -1.07672,0.57425 -1.69882,1.627043 -0.59818,1.052797 -0.59818,2.392707 0,1.33992 0.59818,2.39271 0.6221,1.05279 1.69882,1.65097 1.10065,0.57425 2.46449,0.57425 z"
             style="font-style:normal;font-variant:normal;font-weight:normal;font-stretch:normal;font-family:Montserrat;-inkscape-font-specification:Montserrat;fill:#ffffff;fill-opacity:1;stroke-width:1.38402"
             id="path1023" />
          <path
             d="m 574.84205,92.004663 -5.64679,16.748967 h -1.86632 l -4.90505,-14.284476 -4.92898,14.284476 h -1.84239 l -5.64679,-16.748967 h 1.81845 l 4.83328,14.404117 5.00076,-14.404117 h 1.65097 l 4.92898,14.475897 4.90506,-14.475897 z"
             style="font-style:normal;font-variant:normal;font-weight:normal;font-stretch:normal;font-family:Montserrat;-inkscape-font-specification:Montserrat;fill:#ffffff;fill-opacity:1;stroke-width:1.38402"
             id="path1025" />
          <path
             d="m 577.64146,96.167978 h 1.69882 v 12.585652 h -1.69882 z m 0.86137,-2.751617 q -0.52639,0 -0.8853,-0.358906 -0.35891,-0.358907 -0.35891,-0.861376 0,-0.478542 0.35891,-0.837448 0.35891,-0.358907 0.8853,-0.358907 0.5264,0 0.88531,0.358907 0.3589,0.334979 0.3589,0.813521 0,0.526396 -0.3589,0.885303 -0.35891,0.358906 -0.88531,0.358906 z"
             style="font-style:normal;font-variant:normal;font-weight:normal;font-stretch:normal;font-family:Montserrat;-inkscape-font-specification:Montserrat;fill:#ffffff;fill-opacity:1;stroke-width:1.38402"
             id="path1027" />
          <path
             d="m 595.56284,90.999724 v 17.753906 h -1.62705 v -2.48842 q -0.76566,1.26814 -2.0338,1.9381 -1.24421,0.66996 -2.8234,0.66996 -1.7706,0 -3.20623,-0.81352 -1.43563,-0.81353 -2.24915,-2.27308 -0.81352,-1.45955 -0.81352,-3.32587 0,-1.86631 0.81352,-3.325862 0.81352,-1.459553 2.24915,-2.249147 1.43563,-0.813522 3.20623,-0.813522 1.53134,0 2.75162,0.646032 1.24421,0.622105 2.0338,1.842387 v -7.560964 z m -6.34069,16.366136 q 1.316,0 2.36879,-0.59818 1.07672,-0.6221 1.67489,-1.74668 0.62211,-1.12457 0.62211,-2.5602 0,-1.43562 -0.62211,-2.560195 -0.59817,-1.124573 -1.67489,-1.722751 -1.05279,-0.622104 -2.36879,-0.622104 -1.33991,0 -2.41663,0.622104 -1.05279,0.598178 -1.6749,1.722751 -0.59818,1.124575 -0.59818,2.560195 0,1.43563 0.59818,2.5602 0.62211,1.12458 1.6749,1.74668 1.07672,0.59818 2.41663,0.59818 z"
             style="font-style:normal;font-variant:normal;font-weight:normal;font-stretch:normal;font-family:Montserrat;-inkscape-font-specification:Montserrat;fill:#ffffff;fill-opacity:1;stroke-width:1.38402"
             id="path1029" />
          <path
             d="M 611.95289,96.167978 V 107.2223 q 0,3.20623 -1.57919,4.73756 -1.55526,1.55526 -4.71364,1.55526 -1.74668,0 -3.32586,-0.52639 -1.55527,-0.50247 -2.53628,-1.4117 l 0.86138,-1.29206 q 0.90923,0.81352 2.20129,1.26813 1.31599,0.45462 2.75162,0.45462 2.39271,0 3.51728,-1.12458 1.12458,-1.10064 1.12458,-3.4455 v -1.60311 q -0.7896,1.19635 -2.08166,1.81846 -1.26814,0.6221 -2.8234,0.6221 -1.7706,0 -3.23016,-0.76567 -1.43562,-0.78959 -2.27307,-2.17736 -0.81352,-1.4117 -0.81352,-3.18231 0,-1.7706 0.81352,-3.158375 0.83745,-1.387771 2.27307,-2.153438 1.43563,-0.765668 3.23016,-0.765668 1.60312,0 2.89518,0.646032 1.29206,0.646032 2.08166,1.866314 v -2.416637 z m -6.43639,10.599702 q 1.36385,0 2.46449,-0.57425 1.10065,-0.59818 1.69883,-1.65097 0.6221,-1.05279 0.6221,-2.39271 0,-1.33991 -0.6221,-2.36878 -0.59818,-1.052793 -1.69883,-1.627043 -1.07672,-0.598177 -2.46449,-0.598177 -1.36384,0 -2.46449,0.57425 -1.07672,0.57425 -1.69882,1.627043 -0.59818,1.052797 -0.59818,2.392707 0,1.33992 0.59818,2.39271 0.6221,1.05279 1.69882,1.65097 1.10065,0.57425 2.46449,0.57425 z"
             style="font-style:normal;font-variant:normal;font-weight:normal;font-stretch:normal;font-family:Montserrat;-inkscape-font-specification:Montserrat;fill:#ffffff;fill-opacity:1;stroke-width:1.38402"
             id="path1031" />
          <path
             d="m 627.67294,102.9872 h -10.52792 q 0.14356,1.96202 1.50741,3.18231 1.36384,1.19635 3.4455,1.19635 1.17243,0 2.15344,-0.40676 0.98101,-0.43069 1.69882,-1.24421 l 0.95709,1.10065 q -0.83745,1.00494 -2.10559,1.53133 -1.24421,0.5264 -2.75161,0.5264 -1.9381,0 -3.44551,-0.81352 -1.48348,-0.83745 -2.32092,-2.29701 -0.83745,-1.45955 -0.83745,-3.30194 0,-1.84238 0.78959,-3.301935 0.81352,-1.459553 2.20129,-2.273074 1.4117,-0.813522 3.15838,-0.813522 1.74668,0 3.13445,0.813522 1.38777,0.813521 2.17737,2.273074 0.78959,1.435625 0.78959,3.301935 z m -6.07748,-5.455378 q -1.81846,0 -3.06267,1.172428 -1.22028,1.148501 -1.38777,3.01481 h 8.92481 q -0.16749,-1.866309 -1.4117,-3.01481 -1.22028,-1.172428 -3.06267,-1.172428 z"
             style="font-style:normal;font-variant:normal;font-weight:normal;font-stretch:normal;font-family:Montserrat;-inkscape-font-specification:Montserrat;fill:#ffffff;fill-opacity:1;stroke-width:1.38402"
             id="path1033" />
          <path
             d="m 637.79407,107.98796 q -0.47854,0.43069 -1.19635,0.66996 -0.69389,0.21535 -1.45955,0.21535 -1.77061,0 -2.72769,-0.95709 -0.95709,-0.95708 -0.95709,-2.70376 v -7.608816 h -2.24914 v -1.435626 h 2.24914 v -2.751617 h 1.69883 v 2.751617 h 3.82833 v 1.435626 h -3.82833 v 7.513106 q 0,1.12458 0.55032,1.72275 0.57425,0.57425 1.62704,0.57425 0.5264,0 1.00494,-0.16749 0.50247,-0.16748 0.86138,-0.47854 z"
             style="font-style:normal;font-variant:normal;font-weight:normal;font-stretch:normal;font-family:Montserrat;-inkscape-font-specification:Montserrat;fill:#ffffff;fill-opacity:1;stroke-width:1.38402"
             id="path1035" />
          <path
             d="m 644.25434,108.87327 q -1.53133,0 -2.94303,-0.43069 -1.38777,-0.45462 -2.17736,-1.12457 l 0.76566,-1.33992 q 0.7896,0.6221 1.98595,1.02886 1.19636,0.38284 2.48842,0.38284 1.72275,0 2.53627,-0.5264 0.83745,-0.55032 0.83745,-1.53133 0,-0.69389 -0.45461,-1.07672 -0.45462,-0.40676 -1.1485,-0.59818 -0.69389,-0.21534 -1.84239,-0.40676 -1.53134,-0.28713 -2.46449,-0.57425 -0.93316,-0.31105 -1.60312,-1.02887 -0.64603,-0.71781 -0.64603,-1.985946 0,-1.579188 1.31599,-2.584126 1.31599,-1.004939 3.66085,-1.004939 1.22028,0 2.44056,0.33498 1.22028,0.311052 2.00988,0.837448 l -0.74174,1.363845 q -1.55526,-1.07672 -3.7087,-1.07672 -1.62705,0 -2.46449,0.574251 -0.81353,0.57425 -0.81353,1.507407 0,0.71781 0.45462,1.1485 0.47854,0.43069 1.17243,0.64603 0.69388,0.19142 1.91417,0.40676 1.5074,0.28713 2.41663,0.57425 0.90923,0.28713 1.55526,0.98101 0.64604,0.69389 0.64604,1.91417 0,1.65097 -1.38778,2.63198 -1.36384,0.95709 -3.80441,0.95709 z"
             style="font-style:normal;font-variant:normal;font-weight:normal;font-stretch:normal;font-family:Montserrat;-inkscape-font-specification:Montserrat;fill:#ffffff;fill-opacity:1;stroke-width:1.38402"
             id="path1037" />
          <path
             d="m 652.74843,108.87327 q -0.5264,0 -0.90923,-0.38284 -0.35891,-0.38283 -0.35891,-0.93315 0,-0.55033 0.35891,-0.90923 0.38283,-0.38284 0.90923,-0.38284 0.5264,0 0.90923,0.38284 0.38283,0.3589 0.38283,0.90923 0,0.55032 -0.38283,0.93315 -0.38283,0.38284 -0.90923,0.38284 z"
             style="font-style:normal;font-variant:normal;font-weight:normal;font-stretch:normal;font-family:Montserrat;-inkscape-font-specification:Montserrat;fill:#ffffff;fill-opacity:1;stroke-width:1.38402"
             id="path1039" />
        </g>
        <path
           id="path11979-4"
           d="m -642.24982,724.14934 c 0.0252,-0.19187 0.0378,-0.39002 0.0378,-0.60089 0,-0.20459 -0.0157,-0.40918 -0.0441,-0.60089 l 1.30036,-1.00992 c 0.11485,-0.0895 0.14789,-0.26222 0.0771,-0.39003 l -1.22971,-2.1222 c -0.0771,-0.14132 -0.23695,-0.18544 -0.37792,-0.14132 l -1.53084,0.61362 c -0.32033,-0.2429 -0.6597,-0.44734 -1.03761,-0.6009 l -0.23065,-1.62353 c -0.0252,-0.15387 -0.15419,-0.26205 -0.30743,-0.26205 h -2.45958 c -0.15418,0 -0.27549,0.10834 -0.30113,0.26205 l -0.2305,1.62353 c -0.37791,0.15388 -0.72388,0.36443 -1.0376,0.6009 l -1.53085,-0.61362 c -0.1416,-0.0518 -0.30113,0 -0.37791,0.14132 l -1.22342,2.1222 c -0.0771,0.13347 -0.0519,0.30053 0.0771,0.39003 l 1.30036,1.00992 c -0.0315,0.19171 -0.0582,0.40274 -0.0582,0.60089 0,0.19815 0.0157,0.40902 0.0456,0.60089 l -1.3002,1.00992 c -0.11485,0.0895 -0.14789,0.26206 -0.0771,0.38987 l 1.22987,2.1222 c 0.0771,0.14132 0.23694,0.18544 0.37791,0.14132 l 1.53085,-0.61361 c 0.32017,0.2429 0.65969,0.44749 1.03761,0.60089 l 0.23065,1.62369 c 0.0315,0.15387 0.15418,0.26205 0.30742,0.26205 h 2.45958 c 0.15419,0 0.28179,-0.10834 0.30098,-0.26205 l 0.23065,-1.62369 c 0.37791,-0.15387 0.72373,-0.35799 1.03761,-0.60089 l 1.53085,0.61361 c 0.1416,0.0518 0.30113,0 0.37791,-0.14132 l 1.22987,-2.1222 c 0.0771,-0.14132 0.044,-0.30037 -0.0771,-0.38987 z m -4.57335,1.70031 c -1.2681,0 -2.30587,-1.03551 -2.30587,-2.3012 0,-1.26569 1.03777,-2.3012 2.30587,-2.3012 1.26826,0 2.30587,1.03551 2.30587,2.3012 0,1.26569 -1.03761,2.3012 -2.30587,2.3012 z"
           style="fill:#ffffff;fill-opacity:1;stroke:none;stroke-width:0.631324;stroke-opacity:1" />
      </g>
    </g>
  </g>
</svg>
